<?xml version="1.0" encoding="UTF-8"?><svg xmlns="http://www.w3.org/2000/svg" xmlns:xlink="http://www.w3.org/1999/xlink" fill-opacity="1" color-rendering="auto" color-interpolation="auto" text-rendering="auto" stroke="black" stroke-linecap="square" width="2455" stroke-miterlimit="10" shape-rendering="auto" stroke-opacity="1" fill="black" stroke-dasharray="none" font-weight="normal" stroke-width="1" height="2836" font-family="'Dialog'" font-style="normal" stroke-linejoin="miter" font-size="12px" stroke-dashoffset="0" image-rendering="auto">
  <!--Generated by ySVG 2.5-->
  <defs id="genericDefs"/>
  <g>
    <defs id="defs1">
      <clipPath clipPathUnits="userSpaceOnUse" id="clipPath1">
        <path d="M0 0 L2455 0 L2455 2836 L0 2836 L0 0 Z"/>
      </clipPath>
      <clipPath clipPathUnits="userSpaceOnUse" id="clipPath2">
        <path d="M-15 -15 L2440 -15 L2440 2821 L-15 2821 L-15 -15 Z"/>
      </clipPath>
    </defs>
    <g fill="white" text-rendering="geometricPrecision" shape-rendering="geometricPrecision" transform="translate(15,15)" stroke="white">
      <rect x="-15" width="2455" height="2836" y="-15" clip-path="url(#clipPath2)" stroke="none"/>
    </g>
    <g fill="rgb(255,204,0)" text-rendering="geometricPrecision" shape-rendering="geometricPrecision" transform="matrix(1,0,0,1,15,15)" stroke="rgb(255,204,0)">
      <rect x="1219.1223" width="69.7109" height="30" y="0" clip-path="url(#clipPath2)" stroke="none"/>
    </g>
    <g text-rendering="geometricPrecision" stroke-miterlimit="1.45" shape-rendering="geometricPrecision" font-family="sans-serif" transform="matrix(1,0,0,1,15,15)" stroke-linecap="butt">
      <text x="1223.1223" xml:space="preserve" y="19.5352" clip-path="url(#clipPath2)" stroke="none">vertx-core</text>
      <rect fill="none" x="1219.1223" width="69.7109" height="30" y="0" clip-path="url(#clipPath2)"/>
    </g>
    <g fill="rgb(255,204,0)" text-rendering="geometricPrecision" shape-rendering="geometricPrecision" transform="matrix(1,0,0,1,15,15)" stroke="rgb(255,204,0)">
      <rect x="1988.6386" width="99.084" height="30" y="1852.9514" clip-path="url(#clipPath2)" stroke="none"/>
    </g>
    <g text-rendering="geometricPrecision" stroke-miterlimit="1.45" shape-rendering="geometricPrecision" font-family="sans-serif" transform="matrix(1,0,0,1,15,15)" stroke-linecap="butt">
      <text x="1992.6385" xml:space="preserve" y="1872.4866" clip-path="url(#clipPath2)" stroke="none">vertx-hazelcast</text>
      <rect fill="none" x="1988.6386" width="99.084" height="30" y="1852.9514" clip-path="url(#clipPath2)"/>
    </g>
    <g fill="rgb(255,204,0)" text-rendering="geometricPrecision" shape-rendering="geometricPrecision" transform="matrix(1,0,0,1,15,15)" stroke="rgb(255,204,0)">
      <rect x="528.3294" width="116.1816" height="30" y="268.2843" clip-path="url(#clipPath2)" stroke="none"/>
    </g>
    <g text-rendering="geometricPrecision" stroke-miterlimit="1.45" shape-rendering="geometricPrecision" font-family="sans-serif" transform="matrix(1,0,0,1,15,15)" stroke-linecap="butt">
      <text x="532.3294" xml:space="preserve" y="287.8194" clip-path="url(#clipPath2)" stroke="none">vertx-lang-groovy</text>
      <rect fill="none" x="528.3294" width="116.1816" height="30" y="268.2843" clip-path="url(#clipPath2)"/>
    </g>
    <g fill="rgb(255,204,0)" text-rendering="geometricPrecision" shape-rendering="geometricPrecision" transform="matrix(1,0,0,1,15,15)" stroke="rgb(255,204,0)">
      <rect x="708.1246" width="102.7461" height="30" y="792.9898" clip-path="url(#clipPath2)" stroke="none"/>
    </g>
    <g text-rendering="geometricPrecision" stroke-miterlimit="1.45" shape-rendering="geometricPrecision" font-family="sans-serif" transform="matrix(1,0,0,1,15,15)" stroke-linecap="butt">
      <text x="712.1246" xml:space="preserve" y="812.5249" clip-path="url(#clipPath2)" stroke="none">vertx-lang-ruby</text>
      <rect fill="none" x="708.1246" width="102.7461" height="30" y="792.9898" clip-path="url(#clipPath2)"/>
    </g>
    <g fill="rgb(255,204,0)" text-rendering="geometricPrecision" shape-rendering="geometricPrecision" transform="matrix(1,0,0,1,15,15)" stroke="rgb(255,204,0)">
      <rect x="1011.8445" width="86.334" height="30" y="268.2843" clip-path="url(#clipPath2)" stroke="none"/>
    </g>
    <g text-rendering="geometricPrecision" stroke-miterlimit="1.45" shape-rendering="geometricPrecision" font-family="sans-serif" transform="matrix(1,0,0,1,15,15)" stroke-linecap="butt">
      <text x="1015.8445" xml:space="preserve" y="287.8194" clip-path="url(#clipPath2)" stroke="none">vertx-lang-js</text>
      <rect fill="none" x="1011.8445" width="86.334" height="30" y="268.2843" clip-path="url(#clipPath2)"/>
    </g>
    <g fill="rgb(255,204,0)" text-rendering="geometricPrecision" shape-rendering="geometricPrecision" transform="matrix(1,0,0,1,15,15)" stroke="rgb(255,204,0)">
      <rect x="1216.2441" width="158.6094" height="30" y="2492.3447" clip-path="url(#clipPath2)" stroke="none"/>
    </g>
    <g text-rendering="geometricPrecision" stroke-miterlimit="1.45" shape-rendering="geometricPrecision" font-family="sans-serif" transform="matrix(1,0,0,1,15,15)" stroke-linecap="butt">
      <text x="1220.2441" xml:space="preserve" y="2511.8799" clip-path="url(#clipPath2)" stroke="none">vertx-lang-ceylon-parent</text>
      <rect fill="none" x="1216.2441" width="158.6094" height="30" y="2492.3447" clip-path="url(#clipPath2)"/>
    </g>
    <g fill="rgb(255,204,0)" text-rendering="geometricPrecision" shape-rendering="geometricPrecision" transform="matrix(1,0,0,1,15,15)" stroke="rgb(255,204,0)">
      <rect x="911.997" width="56.8672" height="30" y="792.9898" clip-path="url(#clipPath2)" stroke="none"/>
    </g>
    <g text-rendering="geometricPrecision" stroke-miterlimit="1.45" shape-rendering="geometricPrecision" font-family="sans-serif" transform="matrix(1,0,0,1,15,15)" stroke-linecap="butt">
      <text x="915.9969" xml:space="preserve" y="812.5249" clip-path="url(#clipPath2)" stroke="none">vertx-rx</text>
      <rect fill="none" x="911.997" width="56.8672" height="30" y="792.9898" clip-path="url(#clipPath2)"/>
    </g>
    <g fill="rgb(255,204,0)" text-rendering="geometricPrecision" shape-rendering="geometricPrecision" transform="matrix(1,0,0,1,15,15)" stroke="rgb(255,204,0)">
      <rect x="785.4016" width="67.4492" height="30" y="2030.7626" clip-path="url(#clipPath2)" stroke="none"/>
    </g>
    <g text-rendering="geometricPrecision" stroke-miterlimit="1.45" shape-rendering="geometricPrecision" font-family="sans-serif" transform="matrix(1,0,0,1,15,15)" stroke-linecap="butt">
      <text x="789.4016" xml:space="preserve" y="2050.2979" clip-path="url(#clipPath2)" stroke="none">vertx-unit</text>
      <rect fill="none" x="785.4016" width="67.4492" height="30" y="2030.7626" clip-path="url(#clipPath2)"/>
    </g>
    <g fill="rgb(255,204,0)" text-rendering="geometricPrecision" shape-rendering="geometricPrecision" transform="matrix(1,0,0,1,15,15)" stroke="rgb(255,204,0)">
      <rect x="1119.5557" width="119.4219" height="30" y="1347.9634" clip-path="url(#clipPath2)" stroke="none"/>
    </g>
    <g text-rendering="geometricPrecision" stroke-miterlimit="1.45" shape-rendering="geometricPrecision" font-family="sans-serif" transform="matrix(1,0,0,1,15,15)" stroke-linecap="butt">
      <text x="1123.5558" xml:space="preserve" y="1367.4985" clip-path="url(#clipPath2)" stroke="none">vertx-sql-common</text>
      <rect fill="none" x="1119.5557" width="119.4219" height="30" y="1347.9634" clip-path="url(#clipPath2)"/>
    </g>
    <g fill="rgb(255,204,0)" text-rendering="geometricPrecision" shape-rendering="geometricPrecision" transform="matrix(1,0,0,1,15,15)" stroke="rgb(255,204,0)">
      <rect x="1089.5559" width="108.1484" height="30" y="1642.4599" clip-path="url(#clipPath2)" stroke="none"/>
    </g>
    <g text-rendering="geometricPrecision" stroke-miterlimit="1.45" shape-rendering="geometricPrecision" font-family="sans-serif" transform="matrix(1,0,0,1,15,15)" stroke-linecap="butt">
      <text x="1093.5559" xml:space="preserve" y="1661.9951" clip-path="url(#clipPath2)" stroke="none">vertx-jdbc-client</text>
      <rect fill="none" x="1089.5559" width="108.1484" height="30" y="1642.4599" clip-path="url(#clipPath2)"/>
    </g>
    <g fill="rgb(255,204,0)" text-rendering="geometricPrecision" shape-rendering="geometricPrecision" transform="matrix(1,0,0,1,15,15)" stroke="rgb(255,204,0)">
      <rect x="1028.8645" width="70.6074" height="30" y="1852.9514" clip-path="url(#clipPath2)" stroke="none"/>
    </g>
    <g text-rendering="geometricPrecision" stroke-miterlimit="1.45" shape-rendering="geometricPrecision" font-family="sans-serif" transform="matrix(1,0,0,1,15,15)" stroke-linecap="butt">
      <text x="1032.8645" xml:space="preserve" y="1872.4866" clip-path="url(#clipPath2)" stroke="none">vertx-auth</text>
      <rect fill="none" x="1028.8645" width="70.6074" height="30" y="1852.9514" clip-path="url(#clipPath2)"/>
    </g>
    <g fill="rgb(255,204,0)" text-rendering="geometricPrecision" shape-rendering="geometricPrecision" transform="matrix(1,0,0,1,15,15)" stroke="rgb(255,204,0)">
      <rect x="1753.2235" width="112.7363" height="30" y="2030.7626" clip-path="url(#clipPath2)" stroke="none"/>
    </g>
    <g text-rendering="geometricPrecision" stroke-miterlimit="1.45" shape-rendering="geometricPrecision" font-family="sans-serif" transform="matrix(1,0,0,1,15,15)" stroke-linecap="butt">
      <text x="1757.2235" xml:space="preserve" y="2050.2979" clip-path="url(#clipPath2)" stroke="none">vertx-web-parent</text>
      <rect fill="none" x="1753.2235" width="112.7363" height="30" y="2030.7626" clip-path="url(#clipPath2)"/>
    </g>
    <g fill="rgb(255,204,0)" text-rendering="geometricPrecision" shape-rendering="geometricPrecision" transform="matrix(1,0,0,1,15,15)" stroke="rgb(255,204,0)">
      <rect x="1639.616" width="131.9902" height="30" y="792.9898" clip-path="url(#clipPath2)" stroke="none"/>
    </g>
    <g text-rendering="geometricPrecision" stroke-miterlimit="1.45" shape-rendering="geometricPrecision" font-family="sans-serif" transform="matrix(1,0,0,1,15,15)" stroke-linecap="butt">
      <text x="1643.616" xml:space="preserve" y="812.5249" clip-path="url(#clipPath2)" stroke="none">vertx-service-factory</text>
      <rect fill="none" x="1639.616" width="131.9902" height="30" y="792.9898" clip-path="url(#clipPath2)"/>
    </g>
    <g fill="rgb(255,204,0)" text-rendering="geometricPrecision" shape-rendering="geometricPrecision" transform="matrix(1,0,0,1,15,15)" stroke="rgb(255,204,0)">
      <rect x="1565.41" width="175.9355" height="30" y="1347.9634" clip-path="url(#clipPath2)" stroke="none"/>
    </g>
    <g text-rendering="geometricPrecision" stroke-miterlimit="1.45" shape-rendering="geometricPrecision" font-family="sans-serif" transform="matrix(1,0,0,1,15,15)" stroke-linecap="butt">
      <text x="1569.41" xml:space="preserve" y="1367.4985" clip-path="url(#clipPath2)" stroke="none">vertx-mongo-embedded-db</text>
      <rect fill="none" x="1565.41" width="175.9355" height="30" y="1347.9634" clip-path="url(#clipPath2)"/>
    </g>
    <g fill="rgb(255,204,0)" text-rendering="geometricPrecision" shape-rendering="geometricPrecision" transform="matrix(1,0,0,1,15,15)" stroke="rgb(255,204,0)">
      <rect x="1370.022" width="85.4727" height="30" y="1642.4599" clip-path="url(#clipPath2)" stroke="none"/>
    </g>
    <g text-rendering="geometricPrecision" stroke-miterlimit="1.45" shape-rendering="geometricPrecision" font-family="sans-serif" transform="matrix(1,0,0,1,15,15)" stroke-linecap="butt">
      <text x="1374.022" xml:space="preserve" y="1661.9951" clip-path="url(#clipPath2)" stroke="none">vertx-mongo</text>
      <rect fill="none" x="1370.022" width="85.4727" height="30" y="1642.4599" clip-path="url(#clipPath2)"/>
    </g>
    <g fill="rgb(255,204,0)" text-rendering="geometricPrecision" shape-rendering="geometricPrecision" transform="matrix(1,0,0,1,15,15)" stroke="rgb(255,204,0)">
      <rect x="1298.6074" width="71.7852" height="30" y="2286.8341" clip-path="url(#clipPath2)" stroke="none"/>
    </g>
    <g text-rendering="geometricPrecision" stroke-miterlimit="1.45" shape-rendering="geometricPrecision" font-family="sans-serif" transform="matrix(1,0,0,1,15,15)" stroke-linecap="butt">
      <text x="1302.6074" xml:space="preserve" y="2306.3691" clip-path="url(#clipPath2)" stroke="none">vertx-shell</text>
      <rect fill="none" x="1298.6074" width="71.7852" height="30" y="2286.8341" clip-path="url(#clipPath2)"/>
    </g>
    <g fill="rgb(255,204,0)" text-rendering="geometricPrecision" shape-rendering="geometricPrecision" transform="matrix(1,0,0,1,15,15)" stroke="rgb(255,204,0)">
      <rect x="1025.6131" width="160.6309" height="30" y="2492.3447" clip-path="url(#clipPath2)" stroke="none"/>
    </g>
    <g text-rendering="geometricPrecision" stroke-miterlimit="1.45" shape-rendering="geometricPrecision" font-family="sans-serif" transform="matrix(1,0,0,1,15,15)" stroke-linecap="butt">
      <text x="1029.6132" xml:space="preserve" y="2511.8799" clip-path="url(#clipPath2)" stroke="none">vertx-dropwizard-metrics</text>
      <rect fill="none" x="1025.6131" width="160.6309" height="30" y="2492.3447" clip-path="url(#clipPath2)"/>
    </g>
    <g fill="rgb(255,204,0)" text-rendering="geometricPrecision" shape-rendering="geometricPrecision" transform="matrix(1,0,0,1,15,15)" stroke="rgb(255,204,0)">
      <rect x="518.1766" width="147.3477" height="30" y="2492.3447" clip-path="url(#clipPath2)" stroke="none"/>
    </g>
    <g text-rendering="geometricPrecision" stroke-miterlimit="1.45" shape-rendering="geometricPrecision" font-family="sans-serif" transform="matrix(1,0,0,1,15,15)" stroke-linecap="butt">
      <text x="522.1766" xml:space="preserve" y="2511.8799" clip-path="url(#clipPath2)" stroke="none">vertx-hawkular-metrics</text>
      <rect fill="none" x="518.1766" width="147.3477" height="30" y="2492.3447" clip-path="url(#clipPath2)"/>
    </g>
    <g fill="rgb(255,204,0)" text-rendering="geometricPrecision" shape-rendering="geometricPrecision" transform="matrix(1,0,0,1,15,15)" stroke="rgb(255,204,0)">
      <rect x="32.4043" width="142.9121" height="30" y="2492.3447" clip-path="url(#clipPath2)" stroke="none"/>
    </g>
    <g text-rendering="geometricPrecision" stroke-miterlimit="1.45" shape-rendering="geometricPrecision" font-family="sans-serif" transform="matrix(1,0,0,1,15,15)" stroke-linecap="butt">
      <text x="36.4043" xml:space="preserve" y="2511.8799" clip-path="url(#clipPath2)" stroke="none">vertx-reactive-streams</text>
      <rect fill="none" x="32.4043" width="142.9121" height="30" y="2492.3447" clip-path="url(#clipPath2)"/>
    </g>
    <g fill="rgb(255,204,0)" text-rendering="geometricPrecision" shape-rendering="geometricPrecision" transform="matrix(1,0,0,1,15,15)" stroke="rgb(255,204,0)">
      <rect x="1404.8538" width="70.5781" height="30" y="2492.3447" clip-path="url(#clipPath2)" stroke="none"/>
    </g>
    <g text-rendering="geometricPrecision" stroke-miterlimit="1.45" shape-rendering="geometricPrecision" font-family="sans-serif" transform="matrix(1,0,0,1,15,15)" stroke-linecap="butt">
      <text x="1408.8538" xml:space="preserve" y="2511.8799" clip-path="url(#clipPath2)" stroke="none">vertx-sync</text>
      <rect fill="none" x="1404.8538" width="70.5781" height="30" y="2492.3447" clip-path="url(#clipPath2)"/>
    </g>
    <g fill="rgb(255,204,0)" text-rendering="geometricPrecision" shape-rendering="geometricPrecision" transform="matrix(1,0,0,1,15,15)" stroke="rgb(255,204,0)">
      <rect x="2169.2276" width="177.1074" height="30" y="2492.3447" clip-path="url(#clipPath2)" stroke="none"/>
    </g>
    <g text-rendering="geometricPrecision" stroke-miterlimit="1.45" shape-rendering="geometricPrecision" font-family="sans-serif" transform="matrix(1,0,0,1,15,15)" stroke-linecap="butt">
      <text x="2173.2275" xml:space="preserve" y="2511.8799" clip-path="url(#clipPath2)" stroke="none">vertx-maven-service-factory</text>
      <rect fill="none" x="2169.2276" width="177.1074" height="30" y="2492.3447" clip-path="url(#clipPath2)"/>
    </g>
    <g fill="rgb(255,204,0)" text-rendering="geometricPrecision" shape-rendering="geometricPrecision" transform="matrix(1,0,0,1,15,15)" stroke="rgb(255,204,0)">
      <rect x="1973.6386" width="162.9102" height="30" y="2492.3447" clip-path="url(#clipPath2)" stroke="none"/>
    </g>
    <g text-rendering="geometricPrecision" stroke-miterlimit="1.45" shape-rendering="geometricPrecision" font-family="sans-serif" transform="matrix(1,0,0,1,15,15)" stroke-linecap="butt">
      <text x="1977.6385" xml:space="preserve" y="2511.8799" clip-path="url(#clipPath2)" stroke="none">vertx-http-service-factory</text>
      <rect fill="none" x="1973.6386" width="162.9102" height="30" y="2492.3447" clip-path="url(#clipPath2)"/>
    </g>
    <g fill="rgb(255,204,0)" text-rendering="geometricPrecision" shape-rendering="geometricPrecision" transform="matrix(1,0,0,1,15,15)" stroke="rgb(255,204,0)">
      <rect x="1410.1814" width="125.2285" height="30" y="1347.9634" clip-path="url(#clipPath2)" stroke="none"/>
    </g>
    <g text-rendering="geometricPrecision" stroke-miterlimit="1.45" shape-rendering="geometricPrecision" font-family="sans-serif" transform="matrix(1,0,0,1,15,15)" stroke-linecap="butt">
      <text x="1414.1814" xml:space="preserve" y="1367.4985" clip-path="url(#clipPath2)" stroke="none">vertx-service-proxy</text>
      <rect fill="none" x="1410.1814" width="125.2285" height="30" y="1347.9634" clip-path="url(#clipPath2)"/>
    </g>
    <g fill="rgb(255,204,0)" text-rendering="geometricPrecision" shape-rendering="geometricPrecision" transform="matrix(1,0,0,1,15,15)" stroke="rgb(255,204,0)">
      <rect x="695.5244" width="111.9805" height="30" y="2492.3447" clip-path="url(#clipPath2)" stroke="none"/>
    </g>
    <g text-rendering="geometricPrecision" stroke-miterlimit="1.45" shape-rendering="geometricPrecision" font-family="sans-serif" transform="matrix(1,0,0,1,15,15)" stroke-linecap="butt">
      <text x="699.5245" xml:space="preserve" y="2511.8799" clip-path="url(#clipPath2)" stroke="none">vertx-redis-client</text>
      <rect fill="none" x="695.5244" width="111.9805" height="30" y="2492.3447" clip-path="url(#clipPath2)"/>
    </g>
    <g fill="rgb(255,204,0)" text-rendering="geometricPrecision" shape-rendering="geometricPrecision" transform="matrix(1,0,0,1,15,15)" stroke="rgb(255,204,0)">
      <rect x="295.3168" width="139.9355" height="30" y="2286.8341" clip-path="url(#clipPath2)" stroke="none"/>
    </g>
    <g text-rendering="geometricPrecision" stroke-miterlimit="1.45" shape-rendering="geometricPrecision" font-family="sans-serif" transform="matrix(1,0,0,1,15,15)" stroke-linecap="butt">
      <text x="299.3167" xml:space="preserve" y="2306.3691" clip-path="url(#clipPath2)" stroke="none">vertx-bridge-common</text>
      <rect fill="none" x="295.3168" width="139.9355" height="30" y="2286.8341" clip-path="url(#clipPath2)"/>
    </g>
    <g fill="rgb(255,204,0)" text-rendering="geometricPrecision" shape-rendering="geometricPrecision" transform="matrix(1,0,0,1,15,15)" stroke="rgb(255,204,0)">
      <rect x="406.8465" width="81.3301" height="30" y="2492.3447" clip-path="url(#clipPath2)" stroke="none"/>
    </g>
    <g text-rendering="geometricPrecision" stroke-miterlimit="1.45" shape-rendering="geometricPrecision" font-family="sans-serif" transform="matrix(1,0,0,1,15,15)" stroke-linecap="butt">
      <text x="410.8465" xml:space="preserve" y="2511.8799" clip-path="url(#clipPath2)" stroke="none">vertx-stomp</text>
      <rect fill="none" x="406.8465" width="81.3301" height="30" y="2492.3447" clip-path="url(#clipPath2)"/>
    </g>
    <g fill="rgb(255,204,0)" text-rendering="geometricPrecision" shape-rendering="geometricPrecision" transform="matrix(1,0,0,1,15,15)" stroke="rgb(255,204,0)">
      <rect x="2363.7587" width="61.0215" height="30" y="2775.629" clip-path="url(#clipPath2)" stroke="none"/>
    </g>
    <g text-rendering="geometricPrecision" stroke-miterlimit="1.45" shape-rendering="geometricPrecision" font-family="sans-serif" transform="matrix(1,0,0,1,15,15)" stroke-linecap="butt">
      <text x="2367.7588" xml:space="preserve" y="2795.1641" clip-path="url(#clipPath2)" stroke="none">vertx-jca</text>
      <rect fill="none" x="2363.7587" width="61.0215" height="30" y="2775.629" clip-path="url(#clipPath2)"/>
    </g>
    <g fill="rgb(255,204,0)" text-rendering="geometricPrecision" shape-rendering="geometricPrecision" transform="matrix(1,0,0,1,15,15)" stroke="rgb(255,204,0)">
      <rect x="837.5055" width="69.3652" height="30" y="2492.3447" clip-path="url(#clipPath2)" stroke="none"/>
    </g>
    <g text-rendering="geometricPrecision" stroke-miterlimit="1.45" shape-rendering="geometricPrecision" font-family="sans-serif" transform="matrix(1,0,0,1,15,15)" stroke-linecap="butt">
      <text x="841.5055" xml:space="preserve" y="2511.8799" clip-path="url(#clipPath2)" stroke="none">vertx-mail</text>
      <rect fill="none" x="837.5055" width="69.3652" height="30" y="2492.3447" clip-path="url(#clipPath2)"/>
    </g>
    <g fill="rgb(255,204,0)" text-rendering="geometricPrecision" shape-rendering="geometricPrecision" transform="matrix(1,0,0,1,15,15)" stroke="rgb(255,204,0)">
      <rect x="205.3169" width="166.959" height="30" y="2492.3447" clip-path="url(#clipPath2)" stroke="none"/>
    </g>
    <g text-rendering="geometricPrecision" stroke-miterlimit="1.45" shape-rendering="geometricPrecision" font-family="sans-serif" transform="matrix(1,0,0,1,15,15)" stroke-linecap="butt">
      <text x="209.3169" xml:space="preserve" y="2511.8799" clip-path="url(#clipPath2)" stroke="none">vertx-tcp-eventbus-bridge</text>
      <rect fill="none" x="205.3169" width="166.959" height="30" y="2492.3447" clip-path="url(#clipPath2)"/>
    </g>
    <g fill="rgb(255,204,0)" text-rendering="geometricPrecision" shape-rendering="geometricPrecision" transform="matrix(1,0,0,1,15,15)" stroke="rgb(255,204,0)">
      <rect x="1163.2436" width="74.9902" height="30" y="2775.629" clip-path="url(#clipPath2)" stroke="none"/>
    </g>
    <g text-rendering="geometricPrecision" stroke-miterlimit="1.45" shape-rendering="geometricPrecision" font-family="sans-serif" transform="matrix(1,0,0,1,15,15)" stroke-linecap="butt">
      <text x="1167.2435" xml:space="preserve" y="2795.1641" clip-path="url(#clipPath2)" stroke="none">vertx-stack</text>
      <rect fill="none" x="1163.2436" width="74.9902" height="30" y="2775.629" clip-path="url(#clipPath2)"/>
      <path fill="none" d="M2038.1805 1852.903 L2038.1805 268.2843 L1889.0385 119.1421 L1292.1582 119.1421 L1278.016 105 L1278.016 38" clip-path="url(#clipPath2)"/>
      <path d="M1278.016 30 L1273.016 42 L1278.016 39 L1283.016 42 Z" clip-path="url(#clipPath2)" stroke="none"/>
      <path fill="none" d="M586.4202 268.255 L586.4202 253.2843 L675.5624 164.1421 L1220.605 164.1421 L1234.7472 150 L1234.7472 38" clip-path="url(#clipPath2)"/>
      <path d="M1234.7472 30 L1229.7472 42 L1234.7472 39 L1239.7472 42 Z" clip-path="url(#clipPath2)" stroke="none"/>
      <path fill="none" d="M759.4976 792.9578 L759.4976 268.2843 L848.6398 179.1421 L1223.0089 179.1421 L1237.151 165 L1237.151 38" clip-path="url(#clipPath2)"/>
      <path d="M1237.151 30 L1232.151 42 L1237.151 39 L1242.151 42 Z" clip-path="url(#clipPath2)" stroke="none"/>
      <path fill="none" d="M1055.0115 268.255 L1055.0115 253.2843 L1069.1537 239.1421 L1232.6241 239.1421 L1246.7664 225 L1246.7664 38" clip-path="url(#clipPath2)"/>
      <path d="M1246.7664 30 L1241.7664 42 L1246.7664 39 L1251.7664 42 Z" clip-path="url(#clipPath2)" stroke="none"/>
      <path fill="none" d="M1363.5243 2492.3154 L1363.5243 2477.3447 L1392.6664 2448.2026 L1876.4607 2448.2026 L1890.6028 2434.0605 L1890.6028 2096.1199 L1910.96 2075.7627 L1910.96 2030.7626 L1925.1021 2016.6205 L2011.653 2016.6205 L2025.795 2002.4784 L2025.795 1890.9514" clip-path="url(#clipPath2)"/>
      <path d="M2025.795 1882.9514 L2020.795 1894.9514 L2025.795 1891.9514 L2030.795 1894.9514 Z" clip-path="url(#clipPath2)" stroke="none"/>
      <path fill="none" d="M1340.8657 2492.3154 L1340.8657 2477.3447 L1385.0079 2433.2026 L1861.4607 2433.2026 L1875.6028 2419.0605 L1875.6028 2086.4768 L1880.96 2081.1199 L1880.96 268.2843 L1761.8177 149.1421 L1287.3505 149.1421 L1273.2084 135 L1273.2084 38" clip-path="url(#clipPath2)"/>
      <path d="M1273.2084 30 L1268.2084 42 L1273.2084 39 L1278.2084 42 Z" clip-path="url(#clipPath2)" stroke="none"/>
      <path fill="none" d="M940.4305 792.9418 L940.4305 694.7056 L954.5727 680.5635 L982.7023 680.5635 L996.8444 666.4214 L996.8444 258.2843 L1030.9867 224.1421 L1230.2203 224.1421 L1244.3624 210 L1244.3624 38" clip-path="url(#clipPath2)"/>
      <path d="M1244.3624 30 L1239.3624 42 L1244.3624 39 L1249.3624 42 Z" clip-path="url(#clipPath2)" stroke="none"/>
      <path fill="none" d="M921.4749 792.9617 L921.4749 563.1371 L907.3327 548.9949 L614.2308 548.9949 L600.0887 534.8528 L600.0887 306.2843" clip-path="url(#clipPath2)"/>
      <path d="M600.0887 298.2843 L595.0887 310.2843 L600.0887 307.2843 L605.0887 310.2843 Z" clip-path="url(#clipPath2)" stroke="none"/>
      <path fill="none" d="M959.3863 792.9633 L959.3863 738.8478 L973.5284 724.7056 L1022.1484 724.7056 L1045.9237 700.9303 L1045.9237 306.2843" clip-path="url(#clipPath2)"/>
      <path d="M1045.9237 298.2843 L1040.9237 310.2843 L1045.9237 307.2843 L1050.9237 310.2843 Z" clip-path="url(#clipPath2)" stroke="none"/>
      <path fill="none" d="M1227.5734 2492.3015 L1227.5734 2448.2026 L1185.3469 2405.9761 L875.6644 2405.9761 L861.5222 2391.834 L861.5222 2286.834 L826.6205 2251.9324 L826.6205 2068.7627" clip-path="url(#clipPath2)"/>
      <path d="M826.6205 2060.7627 L821.6205 2072.7627 L826.6205 2069.7627 L831.6205 2072.7627 Z" clip-path="url(#clipPath2)" stroke="none"/>
      <path fill="none" d="M832.616 2030.7172 L832.616 2007.5077 L839.3611 2000.7626 L839.3611 993.7758 L896.9968 936.14 L918.7061 936.14 L932.8483 921.9979 L932.8483 830.9897" clip-path="url(#clipPath2)"/>
      <path d="M932.8483 822.9897 L927.8483 834.9897 L932.8483 831.9897 L937.8483 834.9897 Z" clip-path="url(#clipPath2)" stroke="none"/>
      <path fill="none" d="M819.1262 2030.7318 L819.1262 1999.2526 L825.871 1992.5077 L825.871 268.2843 L900.0132 194.1421 L1225.4127 194.1421 L1239.5548 180 L1239.5548 38" clip-path="url(#clipPath2)"/>
      <path d="M1239.5548 30 L1234.5548 42 L1239.5548 39 L1244.5548 42 Z" clip-path="url(#clipPath2)" stroke="none"/>
      <path fill="none" d="M792.1465 2030.7333 L792.1465 2015.7626 L783.681 2007.2971 L783.681 1843.8021 L758.2556 1818.3767 L758.2556 1347.9634 L744.1134 1333.8212 L691.421 1333.8212 L676.421 1318.8212 L676.421 645.7108 L655.4444 624.7341 L600.5624 624.7341 L586.4202 610.5919 L586.4202 306.2843" clip-path="url(#clipPath2)"/>
      <path d="M586.4202 298.2843 L581.4202 310.2843 L586.4202 307.2843 L591.4202 310.2843 Z" clip-path="url(#clipPath2)" stroke="none"/>
      <path fill="none" d="M805.6364 2030.7333 L805.6364 2015.7626 L797.171 2007.2974 L797.171 1347.9634 L759.4976 1310.2899 L759.4976 830.9897" clip-path="url(#clipPath2)"/>
      <path d="M759.4976 822.9897 L754.4976 834.9897 L759.4976 831.9897 L764.4976 834.9897 Z" clip-path="url(#clipPath2)" stroke="none"/>
      <path fill="none" d="M846.1059 2030.7333 L846.1059 2015.7626 L852.8512 2009.0173 L852.8512 995.2856 L896.9968 951.14 L896.9968 738.8478 L926.139 709.7056 L1022.1484 709.7056 L1041.3799 690.4742 L1041.3799 306.2843" clip-path="url(#clipPath2)"/>
      <path d="M1041.3799 298.2843 L1036.3799 310.2843 L1041.3799 307.2843 L1046.3799 310.2843 Z" clip-path="url(#clipPath2)" stroke="none"/>
      <path fill="none" d="M1295.5488 2492.3091 L1295.5488 2345.9761 L1283.6072 2334.0344 L1283.6072 2286.834 L1257.7047 2260.9316 L1257.7047 1582.46 L1179.2667 1504.0219 L1179.2667 1385.9634" clip-path="url(#clipPath2)"/>
      <path d="M1179.2667 1377.9634 L1174.2667 1389.9634 L1179.2667 1386.9634 L1184.2667 1389.9634 Z" clip-path="url(#clipPath2)" stroke="none"/>
      <path fill="none" d="M1155.3823 1347.9285 L1155.3823 1061.9415 L1138.7511 1045.3104 L969.7373 1045.3104 L955.5952 1031.1682 L955.5952 830.9897" clip-path="url(#clipPath2)"/>
      <path d="M955.5952 822.9897 L950.5952 834.9897 L955.5952 831.9897 L960.5952 834.9897 Z" clip-path="url(#clipPath2)" stroke="none"/>
      <path fill="none" d="M1227.0354 1347.9299 L1227.0354 1073.5947 L1241.1776 1059.4525 L1340.8796 1059.4525 L1355.0219 1045.3104 L1355.0219 268.2843 L1340.8796 254.1421 L1270.5237 254.1421 L1256.3816 240 L1256.3816 38" clip-path="url(#clipPath2)"/>
      <path d="M1256.3816 30 L1251.3816 42 L1256.3816 39 L1261.3816 42 Z" clip-path="url(#clipPath2)" stroke="none"/>
      <path fill="none" d="M1179.2667 1347.9199 L1179.2667 636.317 L1018.6603 475.7107 L634.7335 475.7107 L620.5913 461.5685 L620.5913 306.2843" clip-path="url(#clipPath2)"/>
      <path d="M620.5913 298.2843 L615.5913 310.2843 L620.5913 307.2843 L625.5913 310.2843 Z" clip-path="url(#clipPath2)" stroke="none"/>
      <path fill="none" d="M1131.4979 1347.9359 L1131.4979 1235.537 L1050.6465 1154.6855 L807.8884 1154.6855 L793.7463 1140.5435 L793.7463 830.9897" clip-path="url(#clipPath2)"/>
      <path d="M793.7463 822.9897 L788.7463 834.9897 L793.7463 831.9897 L798.7463 834.9897 Z" clip-path="url(#clipPath2)" stroke="none"/>
      <path fill="none" d="M1203.151 1347.9204 L1203.1512 645.2015 L1068.6432 510.6935 L1068.6432 306.2843" clip-path="url(#clipPath2)"/>
      <path d="M1068.6432 298.2843 L1063.6432 310.2843 L1068.6432 307.2843 L1073.6432 310.2843 Z" clip-path="url(#clipPath2)" stroke="none"/>
      <path fill="none" d="M1272.8904 2492.3152 L1272.8904 2431.866 L1258.7482 2417.7239 L1239.4524 2417.7239 L1197.7047 2375.9761 L1197.7047 1852.9514 L1157.1487 1812.3953 L1157.1487 1680.46" clip-path="url(#clipPath2)"/>
      <path d="M1157.1487 1672.46 L1152.1487 1684.46 L1157.1487 1681.46 L1162.1487 1684.46 Z" clip-path="url(#clipPath2)" stroke="none"/>
      <path fill="none" d="M1098.5684 1642.4307 L1098.5684 1627.46 L1084.4261 1613.3177 L1013.0064 1613.3177 L998.8643 1599.1757 L998.8643 1235.537 L967.769 1204.4418 L801.0387 1204.4418 L786.8966 1190.2997 L786.8966 830.9897" clip-path="url(#clipPath2)"/>
      <path d="M786.8966 822.9897 L781.8966 834.9897 L786.8966 831.9897 L791.8966 834.9897 Z" clip-path="url(#clipPath2)" stroke="none"/>
      <path fill="none" d="M1152.6426 1642.4332 L1152.6426 1533.2828 L1120.4757 1501.116 L1103.6976 1501.116 L1089.5555 1486.9738 L1089.5555 763.8477 L1064.0992 738.3914 L1064.0992 306.2843" clip-path="url(#clipPath2)"/>
      <path d="M1064.0992 298.2843 L1059.0992 310.2843 L1064.0992 307.2843 L1069.0992 310.2843 Z" clip-path="url(#clipPath2)" stroke="none"/>
      <path fill="none" d="M1188.692 1642.4348 L1188.692 1539.3323 L1155.3823 1506.0226 L1155.3823 1385.9634" clip-path="url(#clipPath2)"/>
      <path d="M1155.3823 1377.9634 L1150.3823 1389.9634 L1155.3823 1386.9634 L1160.3823 1389.9634 Z" clip-path="url(#clipPath2)" stroke="none"/>
      <path fill="none" d="M1116.593 1642.4307 L1116.593 1627.46 L1059.5555 1570.4225 L1059.5555 1148.5947 L1045.4135 1134.4525 L965.9461 1134.4525 L951.804 1120.3104 L951.804 830.9897" clip-path="url(#clipPath2)"/>
      <path d="M951.804 822.9897 L946.804 834.9897 L951.804 831.9897 L956.804 834.9897 Z" clip-path="url(#clipPath2)" stroke="none"/>
      <path fill="none" d="M1170.6672 1642.434 L1170.6672 1536.3075 L1104.5555 1470.1958 L1104.5555 951.1148 L1118.6976 936.9727 L1237.4316 936.9727 L1251.5739 922.8306 L1251.574 38" clip-path="url(#clipPath2)"/>
      <path d="M1251.574 30 L1246.574 42 L1251.574 39 L1256.574 42 Z" clip-path="url(#clipPath2)" stroke="none"/>
      <path fill="none" d="M1134.6178 1642.4325 L1134.6178 1530.2581 L1120.4757 1516.116 L1088.6976 1516.116 L1074.5555 1501.9738 L1074.5555 1030.3104 L1044.5555 1000.3104 L1044.5555 792.9897 L1005.4136 753.8478 L627.8992 753.8478 L613.7571 739.7056 L613.7571 306.2843" clip-path="url(#clipPath2)"/>
      <path d="M613.7571 298.2843 L608.7571 310.2843 L613.7571 307.2843 L618.7571 310.2843 Z" clip-path="url(#clipPath2)" stroke="none"/>
      <path fill="none" d="M1250.2318 2492.3015 L1250.2318 2448.2026 L1193.0055 2390.9761 L1084.1945 2390.9761 L1070.0524 2376.834 L1070.0522 1890.9514" clip-path="url(#clipPath2)"/>
      <path d="M1070.0522 1882.9514 L1065.0522 1894.9514 L1070.0522 1891.9514 L1075.0522 1894.9514 Z" clip-path="url(#clipPath2)" stroke="none"/>
      <path fill="none" d="M1056.323 1852.9227 L1056.323 1823.642 L1021.7099 1789.0288 L1021.7099 755.1441 L1055.0115 721.8425 L1055.0115 306.2843" clip-path="url(#clipPath2)"/>
      <path d="M1055.0115 298.2843 L1050.0115 310.2843 L1055.0115 307.2843 L1060.0115 310.2843 Z" clip-path="url(#clipPath2)" stroke="none"/>
      <path fill="none" d="M1079.8588 1852.9227 L1079.8588 1823.642 L1130.1116 1773.389 L1130.1116 1680.46" clip-path="url(#clipPath2)"/>
      <path d="M1130.1116 1672.46 L1125.1116 1684.46 L1130.1116 1681.46 L1135.1116 1684.46 Z" clip-path="url(#clipPath2)" stroke="none"/>
      <path fill="none" d="M1040.6324 1852.9221 L1040.6324 1837.9514 L1026.4904 1823.8092 L998.0064 1823.8092 L983.8643 1809.6671 L983.8643 782.9899 L969.7222 768.8478 L621.065 768.8478 L606.9229 754.7056 L606.9229 306.2843" clip-path="url(#clipPath2)"/>
      <path d="M606.9229 298.2843 L601.9229 310.2843 L606.9229 307.2843 L611.9229 310.2843 Z" clip-path="url(#clipPath2)" stroke="none"/>
      <path fill="none" d="M1032.7872 1852.9208 L1032.7872 1727.5126 L1018.645 1713.3705 L968.0064 1713.3705 L953.8643 1699.2283 L953.8643 1642.46 L939.7222 1628.3177 L825.0132 1628.3177 L810.871 1614.1757 L810.871 1331.6633 L773.1971 1293.9894 L773.1971 830.9897" clip-path="url(#clipPath2)"/>
      <path d="M773.1971 822.9897 L768.1971 834.9897 L773.1971 831.9897 L778.1971 834.9897 Z" clip-path="url(#clipPath2)" stroke="none"/>
      <path fill="none" d="M1072.0135 1852.9105 L1072.0135 1811.184 L1074.5555 1808.642 L1074.5555 1570.4225 L1088.6976 1556.2803 L1117.3558 1556.2803 L1131.4979 1542.1382 L1131.4979 1385.9634" clip-path="url(#clipPath2)"/>
      <path d="M1131.4979 1377.9634 L1126.4979 1389.9634 L1131.4979 1386.9634 L1136.4979 1389.9634 Z" clip-path="url(#clipPath2)" stroke="none"/>
      <path fill="none" d="M1048.4777 1852.9081 L1048.4777 1830.7966 L1013.8643 1796.1832 L1013.8643 1235.537 L948.0128 1169.6855 L948.0128 830.9897" clip-path="url(#clipPath2)"/>
      <path d="M948.0128 822.9897 L943.0128 834.9897 L948.0128 831.9897 L953.0128 834.9897 Z" clip-path="url(#clipPath2)" stroke="none"/>
      <path fill="none" d="M1064.1682 1852.9158 L1064.1682 1816.4872 L1029.5555 1781.8745 L1029.5555 940.3104 L1043.6976 926.1683 L1060.4135 926.1683 L1074.5555 912.0261 L1074.5555 792.9897 L1088.6976 778.8477 L1235.0277 778.8477 L1249.1698 764.7055 L1249.1702 38" clip-path="url(#clipPath2)"/>
      <path d="M1249.1702 30 L1244.1702 42 L1249.1702 39 L1254.1702 42 Z" clip-path="url(#clipPath2)" stroke="none"/>
      <path fill="none" d="M1318.2073 2492.3154 L1318.2073 2477.3447 L1377.3495 2418.2026 L1809.5416 2418.2026 L1823.6837 2404.0605 L1823.6837 2068.7627" clip-path="url(#clipPath2)"/>
      <path d="M1823.6837 2060.7627 L1818.6837 2072.7627 L1823.6837 2069.7627 L1828.6837 2072.7627 Z" clip-path="url(#clipPath2)" stroke="none"/>
      <path fill="none" d="M1760.2695 2030.7333 L1760.2695 2015.7626 L1716.9852 1972.4784 L1107.7301 1972.4784 L1093.588 1958.3362 L1093.588 1890.9514" clip-path="url(#clipPath2)"/>
      <path d="M1093.588 1882.9514 L1088.588 1894.9514 L1093.588 1891.9514 L1098.588 1894.9514 Z" clip-path="url(#clipPath2)" stroke="none"/>
      <path fill="none" d="M1816.6377 2030.7358 L1816.6377 1921.1228 L1820.96 1916.8007 L1820.96 1587.9076 L1821.8678 1586.9996 L1821.8678 788.2514 L1391.0428 357.4264 L1100.9609 357.4264 L1086.8187 343.2843 L1086.8187 306.2843" clip-path="url(#clipPath2)"/>
      <path d="M1086.8187 298.2843 L1081.8187 310.2843 L1086.8187 307.2843 L1091.8187 310.2843 Z" clip-path="url(#clipPath2)" stroke="none"/>
      <path fill="none" d="M1774.3616 2030.7272 L1774.3616 1885.4576 L1776.8678 1882.9514 L1776.8678 1274.6791 L1786.6063 1264.9406 L1786.6063 782.9899 L1391.0428 387.4264 L655.2361 387.4264 L641.0939 373.2843 L641.0939 306.2843" clip-path="url(#clipPath2)"/>
      <path d="M641.0939 298.2843 L636.0939 310.2843 L641.0939 307.2843 L646.0939 310.2843 Z" clip-path="url(#clipPath2)" stroke="none"/>
      <path fill="none" d="M1858.9138 2030.7333 L1858.9138 2015.7626 L1873.0559 2001.6205 L1986.882 2001.6205 L2001.024 1987.4784 L2001.024 1890.9514" clip-path="url(#clipPath2)"/>
      <path d="M2001.024 1882.9514 L1996.024 1894.9514 L2001.024 1891.9514 L2006.024 1894.9514 Z" clip-path="url(#clipPath2)" stroke="none"/>
      <path fill="none" d="M1788.4536 2030.7302 L1788.4536 1897.9514 L1790.96 1895.4451 L1790.96 1852.9514 L1706.2617 1768.2532 L1369.1639 1768.2532 L1355.0219 1754.1111 L1355.0219 1510.8914 L1310.3174 1466.1869 L1283.1199 1466.1869 L1268.9778 1452.0448 L1268.9778 1235.537 L1138.7511 1105.3104 L814.7382 1105.3104 L800.5961 1091.1682 L800.5961 830.9897" clip-path="url(#clipPath2)"/>
      <path d="M800.5961 822.9897 L795.5961 834.9897 L800.5961 831.9897 L805.5961 834.9897 Z" clip-path="url(#clipPath2)" stroke="none"/>
      <path fill="none" d="M1802.5457 2030.7333 L1802.5457 1910.4451 L1806.8678 1906.1228 L1806.8678 1603.8154 L1667.3928 1464.3405 L1372.9552 1464.3405 L1358.8131 1450.1984 L1358.8131 1220.3723 L1093.7511 955.3104 L981.1107 955.3104 L966.9686 941.1683 L966.9686 830.9897" clip-path="url(#clipPath2)"/>
      <path d="M966.9686 822.9897 L961.9686 834.9897 L966.9686 831.9897 L971.9686 834.9897 Z" clip-path="url(#clipPath2)" stroke="none"/>
      <path fill="none" d="M1844.8218 2030.7195 L1844.8218 1942.4784 L1850.96 1936.3402 L1850.96 267.3763 L1747.7257 164.1421 L1284.9467 164.1421 L1270.8046 150 L1270.8046 38" clip-path="url(#clipPath2)"/>
      <path d="M1270.8046 30 L1265.8046 42 L1270.8046 39 L1275.8046 42 Z" clip-path="url(#clipPath2)" stroke="none"/>
      <path fill="none" d="M1705.6111 792.9578 L1705.6111 268.2843 L1631.469 194.1421 L1280.139 194.1421 L1265.9969 180 L1265.9969 38" clip-path="url(#clipPath2)"/>
      <path d="M1265.9969 30 L1260.9969 42 L1265.9969 39 L1270.9969 42 Z" clip-path="url(#clipPath2)" stroke="none"/>
      <path fill="none" d="M1087.7041 1852.9081 L1087.7041 1830.7966 L1179.6243 1738.8763 L1198.5626 1738.8763 L1212.7047 1724.7343 L1212.7047 1642.46 L1329.2733 1525.8914 L1573.2598 1525.8914 L1587.402 1511.7493 L1587.402 1385.9634" clip-path="url(#clipPath2)"/>
      <path d="M1587.402 1377.9634 L1582.402 1389.9634 L1587.402 1386.9634 L1592.402 1389.9634 Z" clip-path="url(#clipPath2)" stroke="none"/>
      <path fill="none" d="M1697.3617 1347.9313 L1697.3617 830.9897" clip-path="url(#clipPath2)"/>
      <path d="M1697.3617 822.9897 L1692.3617 834.9897 L1697.3617 831.9897 L1702.3617 834.9897 Z" clip-path="url(#clipPath2)" stroke="none"/>
      <path fill="none" d="M1609.3939 1347.9252 L1609.3939 1308.8213 L1595.2517 1294.6792 L1473.0345 1294.6792 L1458.8925 1280.537 L1458.8925 255.6882 L1412.3463 209.1421 L1277.7352 209.1421 L1263.5931 195 L1263.5931 38" clip-path="url(#clipPath2)"/>
      <path d="M1263.5931 30 L1258.5931 42 L1263.5931 39 L1268.5931 42 Z" clip-path="url(#clipPath2)" stroke="none"/>
      <path fill="none" d="M1095.5493 1852.9221 L1095.5493 1837.9514 L1136.1053 1797.3953 L1370.1254 1797.3953 L1384.2675 1783.2532 L1384.2675 1680.46" clip-path="url(#clipPath2)"/>
      <path d="M1384.2675 1672.46 L1379.2675 1684.46 L1384.2675 1681.46 L1389.2675 1684.46 Z" clip-path="url(#clipPath2)" stroke="none"/>
      <path fill="none" d="M1450.1526 1642.4307 L1450.1526 1627.46 L1464.2948 1613.3177 L1617.2437 1613.3177 L1631.3859 1599.1757 L1631.3859 1385.9634" clip-path="url(#clipPath2)"/>
      <path d="M1631.3859 1377.9634 L1626.3859 1389.9634 L1631.3859 1386.9634 L1636.3859 1389.9634 Z" clip-path="url(#clipPath2)" stroke="none"/>
      <path fill="none" d="M1375.364 1642.4279 L1375.364 1510.8914 L1313.9778 1449.5051 L1313.9778 1235.537 L1138.7511 1060.3104 L821.588 1060.3104 L807.4458 1046.1682 L807.4458 830.9897" clip-path="url(#clipPath2)"/>
      <path d="M807.4458 822.9897 L802.4458 834.9897 L807.4458 831.9897 L812.4458 834.9897 Z" clip-path="url(#clipPath2)" stroke="none"/>
      <path fill="none" d="M1407.4163 1642.4128 L1407.4163 1449.3405 L1384.4972 1426.4214 L1384.4972 742.8072 L1077.731 436.0409 L1077.731 306.2843" clip-path="url(#clipPath2)"/>
      <path d="M1077.731 298.2843 L1072.731 310.2843 L1077.731 307.2843 L1082.731 310.2843 Z" clip-path="url(#clipPath2)" stroke="none"/>
      <path fill="none" d="M1386.0481 1642.4268 L1386.0481 1506.5754 L1355.0219 1475.5492 L1355.0219 1231.5811 L1093.7511 970.3104 L977.3196 970.3104 L963.1774 956.1683 L963.1774 830.9897" clip-path="url(#clipPath2)"/>
      <path d="M963.1774 822.9897 L958.1774 834.9897 L963.1774 831.9897 L968.1774 834.9897 Z" clip-path="url(#clipPath2)" stroke="none"/>
      <path fill="none" d="M1439.4685 1642.4224 L1439.4685 1604.0142 L1488.4492 1555.0336 L1536.2678 1555.0336 L1550.4099 1540.8914 L1550.4099 1337.9635 L1564.552 1323.8213 L1666.7208 1323.8213 L1680.8629 1309.6792 L1680.8629 830.9897" clip-path="url(#clipPath2)"/>
      <path d="M1680.8629 822.9897 L1675.8629 834.9897 L1680.8629 831.9897 L1685.8629 834.9897 Z" clip-path="url(#clipPath2)" stroke="none"/>
      <path fill="none" d="M1418.1003 1642.4117 L1418.1003 1445.0245 L1395.1814 1422.1055 L1395.1814 268.2843 L1366.0392 239.1421 L1272.9276 239.1421 L1258.7854 225 L1258.7854 38" clip-path="url(#clipPath2)"/>
      <path d="M1258.7854 30 L1253.7854 42 L1258.7854 39 L1263.7854 42 Z" clip-path="url(#clipPath2)" stroke="none"/>
      <path fill="none" d="M1396.7322 1642.4257 L1396.7322 1502.2595 L1373.8131 1479.3405 L1373.8131 747.123 L1029.1165 402.4264 L648.4019 402.4264 L634.2598 388.2843 L634.2598 306.2843" clip-path="url(#clipPath2)"/>
      <path d="M634.2598 298.2843 L629.2598 310.2843 L634.2598 307.2843 L639.2598 310.2843 Z" clip-path="url(#clipPath2)" stroke="none"/>
      <path fill="none" d="M1306.8904 2286.7864 L1306.8904 2189.0718 L1287.2262 2169.4077 L1095.9628 2169.4077 L1081.8207 2155.2656 L1081.8201 1890.9514" clip-path="url(#clipPath2)"/>
      <path d="M1081.8201 1882.9514 L1076.8201 1894.9514 L1081.8201 1891.9514 L1086.8201 1894.9514 Z" clip-path="url(#clipPath2)" stroke="none"/>
      <path fill="none" d="M1340.022 2286.7864 L1340.0219 728.3318 L1073.1871 461.497 L1073.1871 306.2843" clip-path="url(#clipPath2)"/>
      <path d="M1073.1871 298.2843 L1068.1871 310.2843 L1073.1871 307.2843 L1078.1871 310.2843 Z" clip-path="url(#clipPath2)" stroke="none"/>
      <path fill="none" d="M1312.4122 2286.791 L1312.4122 2110.2656 L1298.2701 2096.1233 L1226.8469 2096.1233 L1212.7047 2081.9812 L1212.7047 1782.3953 L1184.1858 1753.8763 L1184.1858 1680.46" clip-path="url(#clipPath2)"/>
      <path d="M1184.1858 1672.46 L1179.1858 1684.46 L1184.1858 1681.46 L1189.1858 1684.46 Z" clip-path="url(#clipPath2)" stroke="none"/>
      <path fill="none" d="M1367.6316 2286.8047 L1367.6316 2271.834 L1381.7738 2257.6919 L1781.3575 2257.6919 L1795.4996 2243.5498 L1795.4996 2068.7627" clip-path="url(#clipPath2)"/>
      <path d="M1795.4996 2060.7627 L1790.4996 2072.7627 L1795.4996 2069.7627 L1800.4996 2072.7627 Z" clip-path="url(#clipPath2)" stroke="none"/>
      <path fill="none" d="M1317.9342 2286.7886 L1317.9342 2100.0801 L1298.9774 2081.1233 L1298.9778 702.2877 L1014.1165 417.4264 L641.5677 417.4264 L627.4255 403.2843 L627.4255 306.2843" clip-path="url(#clipPath2)"/>
      <path d="M627.4255 298.2843 L622.4255 310.2843 L627.4255 307.2843 L632.4255 310.2843 Z" clip-path="url(#clipPath2)" stroke="none"/>
      <path fill="none" d="M1301.3684 2286.791 L1301.3684 2198.5498 L1287.2262 2184.4077 L855.7514 2184.4077 L841.6093 2170.2656 L841.6093 2068.7627" clip-path="url(#clipPath2)"/>
      <path d="M841.6093 2060.7627 L836.6093 2072.7627 L841.6093 2069.7627 L846.6093 2072.7627 Z" clip-path="url(#clipPath2)" stroke="none"/>
      <path fill="none" d="M1351.0658 2286.7864 L1351.0658 2189.0718 L1370.7299 2169.4077 L1661.2277 2169.4077 L1675.3699 2155.2656 L1675.3698 1385.9634" clip-path="url(#clipPath2)"/>
      <path d="M1675.3698 1377.9634 L1670.3698 1389.9634 L1675.3698 1386.9634 L1680.3698 1389.9634 Z" clip-path="url(#clipPath2)" stroke="none"/>
      <path fill="none" d="M1345.5438 2286.8079 L1345.5438 2179.5938 L1370.7299 2154.4077 L1398.6162 2154.4077 L1412.7583 2140.2656 L1412.7583 1680.46" clip-path="url(#clipPath2)"/>
      <path d="M1412.7583 1672.46 L1407.7583 1684.46 L1412.7583 1681.46 L1417.7583 1684.46 Z" clip-path="url(#clipPath2)" stroke="none"/>
      <path fill="none" d="M1323.4562 2286.7861 L1323.4562 2090.6021 L1304.4996 2071.6455 L1304.4996 1782.3953 L1223.7063 1701.6021 L1073.6976 1701.6021 L1059.5555 1687.46 L1059.5555 1642.46 L1045.4135 1628.3177 L968.8643 1628.3177 L953.8643 1613.3177 L953.8643 1279.2924 L925.58 1251.0081 L794.189 1251.0081 L780.0468 1236.866 L780.0468 830.9897" clip-path="url(#clipPath2)"/>
      <path d="M780.0468 822.9897 L775.0468 834.9897 L780.0468 831.9897 L785.0468 834.9897 Z" clip-path="url(#clipPath2)" stroke="none"/>
      <path fill="none" d="M1334.5 2286.8027 L1334.4996 2030.7626 L1320.3574 2016.6205 L1286.8469 2016.6205 L1272.7047 2002.4784 L1272.7047 1567.46 L1258.5626 1553.3177 L1243.5626 1553.3177 L1203.151 1512.9062 L1203.151 1385.9634" clip-path="url(#clipPath2)"/>
      <path d="M1203.151 1377.9634 L1198.151 1389.9634 L1203.151 1386.9634 L1208.151 1389.9634 Z" clip-path="url(#clipPath2)" stroke="none"/>
      <path fill="none" d="M1328.978 2286.8088 L1328.978 2081.124 L1310.0219 2062.1677 L1310.0219 1852.9514 L1328.9778 1833.9954 L1328.9778 1220.537 L1093.7511 985.3104 L973.5284 985.3104 L959.3863 971.1683 L959.3863 830.9897" clip-path="url(#clipPath2)"/>
      <path d="M959.3863 822.9897 L954.3863 834.9897 L959.3863 831.9897 L964.3863 834.9897 Z" clip-path="url(#clipPath2)" stroke="none"/>
      <path fill="none" d="M1356.5878 2286.791 L1356.5878 2198.5498 L1370.7299 2184.4077 L1718.5591 2184.4077 L1732.7012 2170.2656 L1732.7012 1897.118 L1744.5234 1885.2958 L1744.5234 1580.1155 L1756.3456 1568.2932 L1756.3456 1337.9635 L1742.2035 1323.8213 L1728.0027 1323.8213 L1713.8605 1309.6792 L1713.8605 830.9897" clip-path="url(#clipPath2)"/>
      <path d="M1713.8605 822.9897 L1708.8605 834.9897 L1713.8605 831.9897 L1718.8605 834.9897 Z" clip-path="url(#clipPath2)" stroke="none"/>
      <path fill="none" d="M1362.1096 2286.7861 L1362.1096 2262.356 L1381.7738 2242.6919 L1724.0813 2242.6919 L1738.2234 2228.5498 L1738.2234 1906.5958 L1750.0457 1894.7736 L1750.0457 1642.46 L1761.8678 1630.6377 L1761.8678 1347.9634 L1776.01 1333.8212 L1822.7257 1333.8212 L1836.8678 1319.6791 L1836.8678 268.2843 L1747.7257 179.1421 L1282.5428 179.1421 L1268.4008 165 L1268.4008 38" clip-path="url(#clipPath2)"/>
      <path d="M1268.4008 30 L1263.4008 42 L1268.4008 39 L1273.4008 42 Z" clip-path="url(#clipPath2)" stroke="none"/>
      <path fill="none" d="M1177.3201 2492.3154 L1177.3201 2477.3447 L1191.4622 2463.2026 L1256.5537 2463.2026 L1316.5537 2403.2026 L1316.5537 2324.834" clip-path="url(#clipPath2)"/>
      <path d="M1316.5537 2316.834 L1311.5537 2328.834 L1316.5537 2325.834 L1321.5537 2328.834 Z" clip-path="url(#clipPath2)" stroke="none"/>
      <path fill="none" d="M1052.385 2492.3154 L1052.385 2477.3447 L998.8643 2423.824 L998.8643 2286.834 L968.8643 2256.834 L968.8643 1852.9514 L954.7222 1838.8092 L818.1631 1838.8092 L804.0211 1824.6671 L804.0211 1339.8134 L766.3474 1302.1396 L766.3474 830.9897" clip-path="url(#clipPath2)"/>
      <path d="M766.3474 822.9897 L761.3474 834.9897 L766.3474 831.9897 L771.3474 834.9897 Z" clip-path="url(#clipPath2)" stroke="none"/>
      <path fill="none" d="M1105.9286 2492.3147 L1105.9286 2461.5842 L1114.4722 2453.0405 L1114.4722 1774.0284 L1100.3301 1759.8864 L1058.6976 1759.8864 L1044.5555 1745.7443 L1044.5555 1090.3104 L1059.5555 1075.3104 L1059.5554 306.2843" clip-path="url(#clipPath2)"/>
      <path d="M1059.5554 298.2843 L1054.5554 310.2843 L1059.5554 307.2843 L1064.5554 310.2843 Z" clip-path="url(#clipPath2)" stroke="none"/>
      <path fill="none" d="M1070.2328 2492.3154 L1070.2328 2477.3447 L1013.8643 2420.9761 L1013.8643 1852.9514 L999.7222 1838.8092 L983.8643 1838.8092 L968.8643 1823.8092 L968.8643 1264.2924 L944.2217 1239.6498 L944.2217 830.9897" clip-path="url(#clipPath2)"/>
      <path d="M944.2217 822.9897 L939.2217 834.9897 L944.2217 831.9897 L949.2217 834.9897 Z" clip-path="url(#clipPath2)" stroke="none"/>
      <path fill="none" d="M1141.6243 2492.3154 L1141.6243 2477.3447 L1144.4722 2474.4968 L1144.4722 2030.7626 L1158.6144 2016.6205 L1228.5626 2016.6205 L1242.7047 2002.4784 L1242.7047 1537.46 L1283.9778 1496.1869 L1283.9778 1347.9634 L1366.4041 1265.537 L1650.222 1265.537 L1664.3641 1251.3949 L1664.3641 830.9897" clip-path="url(#clipPath2)"/>
      <path d="M1664.3641 822.9897 L1659.3641 834.9897 L1664.3641 831.9897 L1669.3641 834.9897 Z" clip-path="url(#clipPath2)" stroke="none"/>
      <path fill="none" d="M1159.4722 2492.3196 L1159.4722 2286.834 L1232.7565 2213.5498 L1753.1735 2213.5498 L1767.3156 2199.4077 L1767.3156 2068.7627" clip-path="url(#clipPath2)"/>
      <path d="M1767.3156 2060.7627 L1762.3156 2072.7627 L1767.3156 2069.7627 L1772.3156 2072.7627 Z" clip-path="url(#clipPath2)" stroke="none"/>
      <path fill="none" d="M1088.0807 2492.3154 L1088.0807 2477.3447 L1058.2842 2447.5481 L1058.2843 1890.9514" clip-path="url(#clipPath2)"/>
      <path d="M1058.2843 1882.9514 L1053.2843 1894.9514 L1058.2843 1891.9514 L1063.2843 1894.9514 Z" clip-path="url(#clipPath2)" stroke="none"/>
      <path fill="none" d="M1123.7765 2492.2974 L1123.7765 2468.0405 L1129.4722 2462.3447 L1129.4722 2030.7626 L1158.6144 2001.6205 L1213.5626 2001.6205 L1227.7047 1987.4784 L1227.7047 1522.46 L1253.9778 1496.1869 L1253.9778 38" clip-path="url(#clipPath2)"/>
      <path d="M1253.9778 30 L1248.9778 42 L1253.9778 39 L1258.9778 42 Z" clip-path="url(#clipPath2)" stroke="none"/>
      <path fill="none" d="M1034.5371 2492.3154 L1034.5371 2477.3447 L1020.395 2463.2026 L955.685 2463.2026 L941.5428 2449.0605 L941.5428 2030.7626 L938.8643 2028.0841 L938.8643 1294.2924 L924.7222 1280.1501 L881.139 1280.1501 L866.9968 1266.0081 L866.9968 621.4214 L852.8547 607.2792 L607.3966 607.2792 L593.2545 593.1371 L593.2545 306.2843" clip-path="url(#clipPath2)"/>
      <path d="M593.2545 298.2843 L588.2545 310.2843 L593.2545 307.2843 L598.2545 310.2843 Z" clip-path="url(#clipPath2)" stroke="none"/>
      <path fill="none" d="M579.5714 2492.3164 L579.5714 2434.5637 L602.752 2411.3831 L602.752 1170.3849 L738.9484 1034.1885 L738.9484 830.9897" clip-path="url(#clipPath2)"/>
      <path d="M738.9484 822.9897 L733.9484 834.9897 L738.9484 831.9897 L743.9484 834.9897 Z" clip-path="url(#clipPath2)" stroke="none"/>
      <path fill="none" d="M628.6873 2492.3132 L628.6873 2427.7605 L632.752 2423.6958 L632.752 1852.9514 L618.6099 1838.8092 L601.8941 1838.8092 L587.752 1824.6671 L587.752 750.7108 L702.0414 636.4214 L1018.1499 636.4214 L1032.292 622.2792 L1032.292 306.2843" clip-path="url(#clipPath2)"/>
      <path d="M1032.292 298.2843 L1027.292 310.2843 L1032.292 307.2843 L1037.292 310.2843 Z" clip-path="url(#clipPath2)" stroke="none"/>
      <path fill="none" d="M604.1294 2492.3125 L604.1294 2426.3831 L617.752 2412.7605 L617.752 1170.3849 L881.9968 906.14 L911.1238 906.14 L925.266 891.9979 L925.266 830.9897" clip-path="url(#clipPath2)"/>
      <path d="M925.266 822.9897 L920.266 834.9897 L925.266 831.9897 L930.266 834.9897 Z" clip-path="url(#clipPath2)" stroke="none"/>
      <path fill="none" d="M530.4556 2492.3069 L530.4556 2414.9827 L535.9175 2409.5208 L535.9175 1642.46 L521.7753 1628.3177 L456.8452 1628.3177 L426.8452 1598.3177 L426.8452 1347.9634 L412.7031 1333.8212 L336.4394 1333.8212 L322.2972 1319.6791 L322.2972 676.0092 L510.9254 487.381 L510.9254 245.6883 L622.4716 134.1421 L1215.7974 134.1421 L1229.9396 120 L1229.9396 38" clip-path="url(#clipPath2)"/>
      <path d="M1229.9396 30 L1224.9396 42 L1229.9396 39 L1234.9396 42 Z" clip-path="url(#clipPath2)" stroke="none"/>
      <path fill="none" d="M555.0135 2492.3145 L555.0135 2430.4678 L565.9175 2419.5637 L565.9176 306.2843" clip-path="url(#clipPath2)"/>
      <path d="M565.9176 298.2843 L560.9176 310.2843 L565.9176 307.2843 L570.9176 310.2843 Z" clip-path="url(#clipPath2)" stroke="none"/>
      <path fill="none" d="M653.2452 2492.3154 L653.2452 2477.3447 L677.752 2452.8379 L677.752 2286.834 L691.8941 2272.6919 L789.9954 2272.6919 L804.1375 2258.5498 L804.1375 2068.7627" clip-path="url(#clipPath2)"/>
      <path d="M804.1375 2060.7627 L799.1375 2072.7627 L804.1375 2069.7627 L809.1375 2072.7627 Z" clip-path="url(#clipPath2)" stroke="none"/>
      <path fill="none" d="M151.4977 2492.3188 L151.4976 792.9897 L497.9189 446.5685 L999.9743 446.5685 L1014.1165 432.4264 L1014.1165 306.2843" clip-path="url(#clipPath2)"/>
      <path d="M1014.1165 298.2843 L1009.1165 310.2843 L1014.1165 307.2843 L1019.1165 310.2843 Z" clip-path="url(#clipPath2)" stroke="none"/>
      <path fill="none" d="M56.2229 2492.3188 L56.223 1642.46 L42.0809 1628.3177 L14.1421 1628.3177 L0 1614.1757 L0 255.6882 L181.5461 74.1421 L1206.1821 74.1421 L1220.3242 60 L1220.3242 38" clip-path="url(#clipPath2)"/>
      <path d="M1220.3242 30 L1215.3242 42 L1220.3242 39 L1225.3242 42 Z" clip-path="url(#clipPath2)" stroke="none"/>
      <path fill="none" d="M103.8603 2492.3154 L103.8603 2477.3447 L136.4976 2444.7075 L136.4976 792.9897 L497.9189 431.5685 L524.4386 431.5685 L538.5807 417.4264 L538.5807 306.2843" clip-path="url(#clipPath2)"/>
      <path d="M538.5807 298.2843 L533.5807 310.2843 L538.5807 307.2843 L543.5807 310.2843 Z" clip-path="url(#clipPath2)" stroke="none"/>
      <path fill="none" d="M1457.7874 2492.3154 L1457.7874 2477.3447 L1471.9296 2463.2026 L1891.4607 2463.2026 L1905.6028 2449.0605 L1905.6028 2236.4768 L1940.96 2201.1199 L1940.96 268.2843 L1806.8177 134.1421 L1289.7544 134.1421 L1275.6122 120 L1275.6122 38" clip-path="url(#clipPath2)"/>
      <path d="M1275.6122 30 L1270.6122 42 L1275.6122 39 L1280.6122 42 Z" clip-path="url(#clipPath2)" stroke="none"/>
      <path fill="none" d="M1422.4983 2492.3013 L1422.4983 2403.2026 L1380.272 2360.9761 L1196.8469 2360.9761 L1182.7047 2346.834 L1182.7047 2248.6016 L1154.6083 2220.5051 L848.257 2220.5051 L834.1149 2206.363 L834.1149 2068.7627" clip-path="url(#clipPath2)"/>
      <path d="M834.1149 2060.7627 L829.1149 2072.7627 L834.1149 2069.7627 L839.1149 2072.7627 Z" clip-path="url(#clipPath2)" stroke="none"/>
      <path fill="none" d="M2213.5044 2492.3154 L2213.5044 2477.3447 L2184.2273 2448.0676 L2184.2273 1347.9634 L2086.2046 1249.9406 L1777.499 1249.9406 L1763.3568 1235.7985 L1763.3568 830.9897" clip-path="url(#clipPath2)"/>
      <path d="M1763.3568 822.9897 L1758.3568 834.9897 L1763.3568 831.9897 L1768.3568 834.9897 Z" clip-path="url(#clipPath2)" stroke="none"/>
      <path fill="none" d="M2302.0581 2492.3108 L2302.0583 268.2843 L2122.9163 89.1421 L1296.9658 89.1421 L1282.8237 75 L1282.8237 38" clip-path="url(#clipPath2)"/>
      <path d="M1282.8237 30 L1277.8237 42 L1282.8237 39 L1287.8237 42 Z" clip-path="url(#clipPath2)" stroke="none"/>
      <path fill="none" d="M2034.7299 2492.3154 L2034.7299 2477.3447 L2020.5878 2463.2026 L1994.8602 2463.2026 L1973.6385 2441.981 L1973.6385 792.9897 L1508.0752 327.4264 L1110.0487 327.4264 L1095.9065 313.2843 L1095.9065 306.2843" clip-path="url(#clipPath2)"/>
      <path d="M1095.9065 298.2843 L1090.9065 310.2843 L1095.9065 307.2843 L1100.9065 310.2843 Z" clip-path="url(#clipPath2)" stroke="none"/>
      <path fill="none" d="M2075.4575 2492.3154 L2075.4575 2477.3447 L2117.7227 2435.0796 L2117.7227 1842.9514 L2088.5806 1813.8093 L1971.4413 1813.8093 L1957.2992 1799.6671 L1957.2992 1642.46 L1871.8389 1556.9996 L1806.01 1556.9996 L1791.8678 1542.8574 L1791.8678 1318.8212 L1777.7257 1304.6791 L1744.5015 1304.6791 L1730.3593 1290.537 L1730.3593 830.9897" clip-path="url(#clipPath2)"/>
      <path d="M1730.3593 822.9897 L1725.3593 834.9897 L1730.3593 831.9897 L1735.3593 834.9897 Z" clip-path="url(#clipPath2)" stroke="none"/>
      <path fill="none" d="M2116.1851 2492.3154 L2116.1851 2477.3447 L2132.7227 2460.8071 L2132.7227 1852.9514 L2169.2273 1816.4467 L2169.2273 1642.46 L2199.2273 1612.46 L2199.2273 268.2843 L2035.0852 104.1421 L1294.562 104.1421 L1280.4198 90 L1280.4198 38" clip-path="url(#clipPath2)"/>
      <path d="M1280.4198 30 L1275.4198 42 L1280.4198 39 L1285.4198 42 Z" clip-path="url(#clipPath2)" stroke="none"/>
      <path fill="none" d="M1994.0023 2492.3154 L1994.0023 2477.3447 L1979.8602 2463.2026 L1955.1021 2463.2026 L1940.96 2449.0605 L1940.96 2286.834 L1779.3914 2125.2656 L863.2457 2125.2656 L849.1036 2111.1233 L849.1036 2068.7627" clip-path="url(#clipPath2)"/>
      <path d="M849.1036 2060.7627 L844.1036 2072.7627 L849.1036 2069.7627 L854.1036 2072.7627 Z" clip-path="url(#clipPath2)" stroke="none"/>
      <path fill="none" d="M1830.7297 2030.7144 L1830.7297 1931.8007 L1835.052 1927.4784 L1835.052 1796.4373 L1791.8678 1753.2532 L1791.8678 1642.46 L1733.5836 1584.1757 L1502.5913 1584.1757 L1488.4492 1570.0336 L1488.4492 1385.9634" clip-path="url(#clipPath2)"/>
      <path d="M1488.4492 1377.9634 L1483.4492 1389.9634 L1488.4492 1386.9634 L1493.4492 1389.9634 Z" clip-path="url(#clipPath2)" stroke="none"/>
      <path fill="none" d="M1428.7844 1642.4279 L1428.7844 1510.8914 L1457.1421 1482.5338 L1457.1421 1385.9634" clip-path="url(#clipPath2)"/>
      <path d="M1457.1421 1377.9634 L1452.1421 1389.9634 L1457.1421 1386.9634 L1462.1421 1389.9634 Z" clip-path="url(#clipPath2)" stroke="none"/>
      <path fill="none" d="M1504.1028 1347.9341 L1504.1028 1332.9634 L1489.9606 1318.8212 L1470.6306 1318.8212 L1456.4885 1304.6791 L1456.4885 268.2843 L1412.3463 224.1421 L1275.3314 224.1421 L1261.1892 210 L1261.1892 38" clip-path="url(#clipPath2)"/>
      <path d="M1261.1892 30 L1256.1892 42 L1261.1892 39 L1266.1892 42 Z" clip-path="url(#clipPath2)" stroke="none"/>
      <path fill="none" d="M1441.4885 1347.9352 L1441.4885 422.872 L1391.0428 372.4264 L1096.417 372.4264 L1082.2749 358.2843 L1082.2749 306.2843" clip-path="url(#clipPath2)"/>
      <path d="M1082.2749 298.2843 L1077.2749 310.2843 L1082.2749 307.2843 L1087.2749 310.2843 Z" clip-path="url(#clipPath2)" stroke="none"/>
      <path fill="none" d="M751.5147 2492.3154 L751.5147 2477.3447 L706.421 2432.251 L706.421 1096.7158 L745.7982 1057.3387 L745.7982 830.9897" clip-path="url(#clipPath2)"/>
      <path d="M745.7982 822.9897 L740.7982 834.9897 L745.7982 831.9897 L750.7982 834.9897 Z" clip-path="url(#clipPath2)" stroke="none"/>
      <path fill="none" d="M796.3069 2492.3154 L796.3069 2477.3447 L736.421 2417.459 L736.421 1852.9514 L722.2789 1838.8092 L705.5632 1838.8092 L691.421 1824.6671 L691.421 738.8478 L778.8474 651.4214 L1022.6938 651.4214 L1036.8359 637.2792 L1036.8359 306.2843" clip-path="url(#clipPath2)"/>
      <path d="M1036.8359 298.2843 L1031.8359 310.2843 L1036.8359 307.2843 L1041.8359 310.2843 Z" clip-path="url(#clipPath2)" stroke="none"/>
      <path fill="none" d="M773.9108 2492.3154 L773.9108 2477.3447 L721.421 2424.855 L721.421 1096.7158 L896.9968 921.14 L914.915 921.14 L929.0571 906.9979 L929.0571 830.9897" clip-path="url(#clipPath2)"/>
      <path d="M929.0571 822.9897 L924.0571 834.9897 L929.0571 831.9897 L934.0571 834.9897 Z" clip-path="url(#clipPath2)" stroke="none"/>
      <path fill="none" d="M706.7225 2492.2949 L706.7225 2466.8086 L677.752 2437.8379 L661.8941 2437.8379 L647.752 2423.6958 L647.752 1642.46 L633.6099 1628.3177 L548.2512 1628.3177 L533.2512 1613.3177 L533.2512 1347.9634 L519.1091 1333.8212 L459.5608 1333.8212 L445.4186 1319.6791 L445.4186 644.5228 L513.3293 576.6121 L513.3293 258.2843 L622.4716 149.1421 L1218.2012 149.1421 L1232.3434 135 L1232.3434 38" clip-path="url(#clipPath2)"/>
      <path d="M1232.3434 30 L1227.3434 42 L1232.3434 39 L1237.3434 42 Z" clip-path="url(#clipPath2)" stroke="none"/>
      <path fill="none" d="M729.1186 2492.3093 L729.1186 2474.2046 L662.752 2407.8379 L662.752 1347.9634 L648.6099 1333.8212 L586.8941 1333.8212 L572.752 1319.6791 L572.7518 306.2843" clip-path="url(#clipPath2)"/>
      <path d="M572.7518 298.2843 L567.7518 310.2843 L572.7518 307.2843 L577.7518 310.2843 Z" clip-path="url(#clipPath2)" stroke="none"/>
      <path fill="none" d="M393.2716 2286.8044 L393.2718 1318.8212 L835.953 876.14 L903.5416 876.14 L917.6837 861.9979 L917.6837 830.9897" clip-path="url(#clipPath2)"/>
      <path d="M917.6837 822.9897 L912.6837 834.9897 L917.6837 831.9897 L922.6837 834.9897 Z" clip-path="url(#clipPath2)" stroke="none"/>
      <path fill="none" d="M309.3103 2286.7947 L309.3103 1642.46 L295.1682 1628.3177 L185.9072 1628.3177 L170.9072 1613.3177 L170.9072 1347.9634 L156.765 1333.8212 L135.6398 1333.8212 L121.4976 1319.6791 L121.4976 268.2843 L285.6397 104.1421 L1210.9897 104.1421 L1225.1318 90 L1225.1318 38" clip-path="url(#clipPath2)"/>
      <path d="M1225.1318 30 L1220.1318 42 L1225.1318 39 L1230.1318 42 Z" clip-path="url(#clipPath2)" stroke="none"/>
      <path fill="none" d="M337.2974 2286.7876 L337.2972 767.6443 L552.2491 552.6923 L552.2491 306.2843" clip-path="url(#clipPath2)"/>
      <path d="M552.2491 298.2843 L547.2491 310.2843 L552.2491 307.2843 L557.2491 310.2843 Z" clip-path="url(#clipPath2)" stroke="none"/>
      <path fill="none" d="M365.2845 2286.8047 L365.2845 2271.834 L367.2972 2269.8213 L367.2972 1318.8212 L725.2489 960.8695 L725.2489 830.9897" clip-path="url(#clipPath2)"/>
      <path d="M725.2489 822.9897 L720.2489 834.9897 L725.2489 831.9897 L730.2489 834.9897 Z" clip-path="url(#clipPath2)" stroke="none"/>
      <path fill="none" d="M421.2587 2286.8076 L421.2587 1852.9514 L407.1166 1838.8092 L366.4394 1838.8092 L352.2972 1824.6671 L352.2972 767.6443 L600.0887 519.8528 L1009.0621 519.8528 L1023.2042 505.7107 L1023.2042 306.2843" clip-path="url(#clipPath2)"/>
      <path d="M1023.2042 298.2843 L1018.2042 310.2843 L1023.2042 307.2843 L1028.2042 310.2843 Z" clip-path="url(#clipPath2)" stroke="none"/>
      <path fill="none" d="M472.9272 2492.3015 L472.9272 2447.9729 L520.9175 2399.9827 L520.9175 2286.834 L550.9175 2256.834 L550.9175 2030.7626 L604.1724 1977.5077 L1020.6064 1977.5077 L1034.7485 1963.3656 L1034.7485 1890.9514" clip-path="url(#clipPath2)"/>
      <path d="M1034.7485 1882.9514 L1029.7485 1894.9514 L1034.7485 1891.9514 L1039.7485 1894.9514 Z" clip-path="url(#clipPath2)" stroke="none"/>
      <path fill="none" d="M442.4284 2492.3159 L442.4284 2433.4717 L490.4186 2385.4814 L490.4186 1252.7181 L732.0986 1011.0382 L732.0986 830.9897" clip-path="url(#clipPath2)"/>
      <path d="M732.0986 822.9897 L727.0986 834.9897 L732.0986 831.9897 L737.0986 834.9897 Z" clip-path="url(#clipPath2)" stroke="none"/>
      <path fill="none" d="M462.7609 2492.2966 L462.7609 2443.1392 L510.7512 2395.1489 L510.7512 1852.9514 L475.4186 1817.6188 L475.4186 695.9729 L593.2545 578.1371 L1013.606 578.1371 L1027.7482 563.9949 L1027.7482 306.2843" clip-path="url(#clipPath2)"/>
      <path d="M1027.7482 298.2843 L1022.7482 310.2843 L1027.7482 307.2843 L1032.7482 310.2843 Z" clip-path="url(#clipPath2)" stroke="none"/>
      <path fill="none" d="M411.9296 2492.3018 L411.9297 2324.834" clip-path="url(#clipPath2)"/>
      <path d="M411.9297 2316.834 L406.9297 2328.834 L411.9297 2325.834 L416.9297 2328.834 Z" clip-path="url(#clipPath2)" stroke="none"/>
      <path fill="none" d="M452.5946 2492.3184 L452.5946 2438.3054 L500.5849 2390.3152 L500.5849 1257.5519 L866.9968 891.14 L907.3327 891.14 L921.4749 876.9979 L921.4749 830.9897" clip-path="url(#clipPath2)"/>
      <path d="M921.4749 822.9897 L916.4749 834.9897 L921.4749 831.9897 L926.4749 834.9897 Z" clip-path="url(#clipPath2)" stroke="none"/>
      <path fill="none" d="M422.0959 2492.3 L422.0959 2400.5991 L450.2524 2372.4426 L450.2524 1642.46 L421.1103 1613.3177 L294.4588 1613.3177 L280.3167 1599.1757 L280.3167 1347.9634 L266.1745 1333.8212 L219.4588 1333.8212 L205.3167 1319.6791 L205.3167 268.2843 L354.4588 119.1421 L1213.3936 119.1421 L1227.5356 105 L1227.5356 38" clip-path="url(#clipPath2)"/>
      <path d="M1227.5356 30 L1222.5356 42 L1227.5356 39 L1232.5356 42 Z" clip-path="url(#clipPath2)" stroke="none"/>
      <path fill="none" d="M432.2621 2492.3137 L432.2621 2428.6379 L460.4186 2400.4814 L460.4186 695.9729 L559.0834 597.3082 L559.0834 306.2843" clip-path="url(#clipPath2)"/>
      <path d="M559.0834 298.2843 L554.0834 310.2843 L559.0834 307.2843 L564.0834 310.2843 Z" clip-path="url(#clipPath2)" stroke="none"/>
      <path fill="none" d="M483.0934 2492.3154 L483.0934 2477.3447 L580.9175 2379.5208 L580.9175 2286.834 L610.0596 2257.6919 L782.501 2257.6919 L796.6431 2243.5498 L796.6431 2068.7627" clip-path="url(#clipPath2)"/>
      <path d="M796.6431 2060.7627 L791.6431 2072.7627 L796.6431 2069.7627 L801.6431 2072.7627 Z" clip-path="url(#clipPath2)" stroke="none"/>
      <path fill="none" d="M2409.5249 2775.5908 L2409.5249 268.2843 L2200.3828 59.1421 L1301.7734 59.1421 L1287.6313 45 L1287.6313 38" clip-path="url(#clipPath2)"/>
      <path d="M1287.6313 30 L1282.6313 42 L1287.6313 39 L1292.6313 42 Z" clip-path="url(#clipPath2)" stroke="none"/>
      <path fill="none" d="M2379.0142 2775.5991 L2379.0139 2286.834 L2364.8718 2272.6919 L2089.479 2272.6919 L2075.3369 2258.5498 L2075.3372 1890.9514" clip-path="url(#clipPath2)"/>
      <path d="M2075.3372 1882.9514 L2070.3372 1894.9514 L2075.3372 1891.9514 L2080.3372 1894.9514 Z" clip-path="url(#clipPath2)" stroke="none"/>
      <path fill="none" d="M893.8647 2492.3125 L893.8643 1962.5077 L908.8643 1947.5077 L908.8643 1613.3177 L1115.0765 1407.1055 L1411.6927 1407.1055 L1425.835 1392.9634 L1425.835 1385.9634" clip-path="url(#clipPath2)"/>
      <path d="M1425.835 1377.9634 L1420.835 1389.9634 L1425.835 1386.9634 L1430.835 1389.9634 Z" clip-path="url(#clipPath2)" stroke="none"/>
      <path fill="none" d="M850.5115 2492.3142 L850.5115 2461.209 L811.6318 2422.3291 L782.8231 2422.3291 L768.681 2408.187 L768.681 1852.9514 L773.2556 1848.3767 L773.2556 1339.429 L752.6479 1318.8212 L752.6479 830.9897" clip-path="url(#clipPath2)"/>
      <path d="M752.6479 822.9897 L747.6479 834.9897 L752.6479 831.9897 L757.6479 834.9897 Z" clip-path="url(#clipPath2)" stroke="none"/>
      <path fill="none" d="M885.1941 2492.2993 L885.1932 1007.9436 L966.9686 926.1683 L1002.1659 926.1683 L1017.1659 911.1683 L1017.1659 744.6882 L1050.4677 711.3864 L1050.4677 306.2843" clip-path="url(#clipPath2)"/>
      <path d="M1050.4677 298.2843 L1045.4677 310.2843 L1050.4677 307.2843 L1055.4677 310.2843 Z" clip-path="url(#clipPath2)" stroke="none"/>
      <path fill="none" d="M876.5234 2492.2993 L876.5222 1001.6146 L936.6394 941.4974 L936.6394 830.9897" clip-path="url(#clipPath2)"/>
      <path d="M936.6394 822.9897 L931.6394 834.9897 L936.6394 831.9897 L941.6394 834.9897 Z" clip-path="url(#clipPath2)" stroke="none"/>
      <path fill="none" d="M902.5354 2492.3167 L902.5353 2030.7626 L900.1932 2028.4205 L900.1932 1347.9634 L997.6196 1250.537 L1633.7233 1250.537 L1647.8654 1236.3949 L1647.8654 830.9897" clip-path="url(#clipPath2)"/>
      <path d="M1647.8654 822.9897 L1642.8654 834.9897 L1647.8654 831.9897 L1652.8654 834.9897 Z" clip-path="url(#clipPath2)" stroke="none"/>
      <path fill="none" d="M867.8528 2492.3196 L867.8528 2441.0557 L846.5222 2419.7251 L846.5222 2256.834 L867.8512 2235.5051 L867.8512 995.2856 L881.9968 981.14 L881.9968 268.2843 L941.139 209.1421 L1227.8165 209.1421 L1241.9586 195 L1241.9586 38" clip-path="url(#clipPath2)"/>
      <path d="M1241.9586 30 L1236.9586 42 L1241.9586 39 L1246.9586 42 Z" clip-path="url(#clipPath2)" stroke="none"/>
      <path fill="none" d="M841.8408 2492.3154 L841.8408 2477.3447 L827.6987 2463.2026 L797.1647 2463.2026 L751.421 2417.459 L751.421 1642.46 L737.2789 1628.3177 L683.7286 1628.3177 L669.5865 1614.1757 L669.5865 653.8762 L655.4444 639.7341 L593.7281 639.7341 L579.586 625.5919 L579.586 306.2843" clip-path="url(#clipPath2)"/>
      <path d="M579.586 298.2843 L574.586 310.2843 L579.586 307.2843 L584.586 310.2843 Z" clip-path="url(#clipPath2)" stroke="none"/>
      <path fill="none" d="M859.1821 2492.3008 L859.1821 2447.385 L819.1262 2407.3291 L819.1262 2068.7627" clip-path="url(#clipPath2)"/>
      <path d="M819.1262 2060.7627 L814.1262 2072.7627 L819.1262 2069.7627 L824.1262 2072.7627 Z" clip-path="url(#clipPath2)" stroke="none"/>
      <path fill="none" d="M264.9452 2492.3154 L264.9452 2477.3447 L250.3167 2462.7163 L250.3167 1314.2225 L718.3992 846.14 L718.3992 830.9897" clip-path="url(#clipPath2)"/>
      <path d="M718.3992 822.9897 L713.3992 834.9897 L718.3992 831.9897 L723.3992 834.9897 Z" clip-path="url(#clipPath2)" stroke="none"/>
      <path fill="none" d="M312.6477 2492.3154 L312.6477 2477.3447 L280.3167 2445.0137 L280.3167 1852.9514 L266.1745 1838.8092 L249.4588 1838.8092 L235.3167 1824.6671 L235.3167 792.9897 L523.4536 504.8528 L1004.5182 504.8528 L1018.6603 490.7107 L1018.6603 306.2843" clip-path="url(#clipPath2)"/>
      <path d="M1018.6603 298.2843 L1013.6603 310.2843 L1018.6603 307.2843 L1023.6603 310.2843 Z" clip-path="url(#clipPath2)" stroke="none"/>
      <path fill="none" d="M336.499 2492.3154 L336.499 2477.3447 L318.6393 2459.4851 L318.6393 2324.834" clip-path="url(#clipPath2)"/>
      <path d="M318.6393 2316.834 L313.6393 2328.834 L318.6393 2325.834 L323.6393 2328.834 Z" clip-path="url(#clipPath2)" stroke="none"/>
      <path fill="none" d="M288.7964 2492.3154 L288.7964 2477.3447 L265.3167 2453.865 L265.3167 1318.8212 L722.9979 861.14 L899.7504 861.14 L913.8925 846.9979 L913.8925 830.9897" clip-path="url(#clipPath2)"/>
      <path d="M913.8925 822.9897 L908.8925 834.9897 L913.8925 831.9897 L918.8925 834.9897 Z" clip-path="url(#clipPath2)" stroke="none"/>
      <path fill="none" d="M217.2426 2492.3154 L217.2426 2477.3447 L205.3167 2465.4187 L205.3167 1852.9514 L175.3167 1822.9514 L175.3167 1642.46 L161.1745 1628.3177 L91.0929 1628.3177 L76.9508 1614.1757 L76.9508 1347.9634 L62.8087 1333.8212 L16.5461 1333.8212 L2.404 1319.6791 L2.404 268.2843 L181.5461 89.1421 L1208.5859 89.1421 L1222.728 75 L1222.728 38" clip-path="url(#clipPath2)"/>
      <path d="M1222.728 30 L1217.728 42 L1222.728 39 L1227.728 42 Z" clip-path="url(#clipPath2)" stroke="none"/>
      <path fill="none" d="M241.0939 2492.3154 L241.0939 2477.3447 L220.3167 2456.5676 L220.3167 792.9897 L545.415 467.8915 L545.415 306.2843" clip-path="url(#clipPath2)"/>
      <path d="M545.415 298.2843 L540.415 310.2843 L545.415 307.2843 L550.415 310.2843 Z" clip-path="url(#clipPath2)" stroke="none"/>
      <path fill="none" d="M360.3503 2492.3154 L360.3503 2477.3447 L475.4186 2362.2764 L475.4186 2286.834 L520.4186 2241.834 L775.0067 2241.834 L789.1487 2227.6919 L789.1487 2068.7627" clip-path="url(#clipPath2)"/>
      <path d="M789.1487 2060.7627 L784.1487 2072.7627 L789.1487 2069.7627 L794.1487 2072.7627 Z" clip-path="url(#clipPath2)" stroke="none"/>
      <path fill="none" d="M1196.7213 2775.5894 L1196.7213 2612.7676 L1150.4406 2566.4868 L998.0064 2566.4868 L983.8643 2552.3447 L983.8643 2030.7626 L998.0064 2016.6205 L1032.3743 2016.6205 L1046.5164 2002.4784 L1046.5164 1890.9514" clip-path="url(#clipPath2)"/>
      <path d="M1046.5164 1882.9514 L1041.5164 1894.9514 L1046.5164 1891.9514 L1051.5164 1894.9514 Z" clip-path="url(#clipPath2)" stroke="none"/>
      <path fill="none" d="M1212.7906 2775.5981 L1212.7906 2649.7329 L1251.0369 2611.4868 L1909.1392 2611.4868 L1923.2814 2597.3447 L1923.2814 2138.4412 L1895.96 2111.1199 L1880.96 2111.1199 L1851.8678 2082.0276 L1851.8678 2068.7627" clip-path="url(#clipPath2)"/>
      <path d="M1851.8678 2060.7627 L1846.8678 2072.7627 L1851.8678 2069.7627 L1856.8678 2072.7627 Z" clip-path="url(#clipPath2)" stroke="none"/>
      <path fill="none" d="M1231.5382 2775.5903 L1231.5382 2735.9854 L1251.0369 2716.4868 L2243.6392 2716.4868 L2257.7812 2702.3447 L2257.7812 2530.3447" clip-path="url(#clipPath2)"/>
      <path d="M2257.7812 2522.3447 L2252.7812 2534.3447 L2257.7812 2531.3447 L2262.7812 2534.3447 Z" clip-path="url(#clipPath2)" stroke="none"/>
      <path fill="none" d="M1167.2609 2775.6023 L1167.2609 2748.3071 L1150.4406 2731.4868 L118.0025 2731.4868 L103.8603 2717.3447 L103.8603 2530.3447" clip-path="url(#clipPath2)"/>
      <path d="M103.8603 2522.3447 L98.8603 2534.3447 L103.8603 2531.3447 L108.8603 2534.3447 Z" clip-path="url(#clipPath2)" stroke="none"/>
      <path fill="none" d="M1186.0084 2775.6013 L1186.0084 2662.0547 L1150.4406 2626.4868 L836.6473 2626.4868 L822.5052 2612.3447 L822.5052 2448.2026 L811.6318 2437.3291 L811.6318 2068.7627" clip-path="url(#clipPath2)"/>
      <path d="M811.6318 2060.7627 L806.6318 2072.7627 L811.6318 2069.7627 L816.6318 2072.7627 Z" clip-path="url(#clipPath2)" stroke="none"/>
      <path fill="none" d="M1180.652 2775.5857 L1180.652 2686.6982 L1150.4406 2656.4868 L605.9926 2656.4868 L591.8504 2642.3447 L591.8504 2530.3447" clip-path="url(#clipPath2)"/>
      <path d="M591.8504 2522.3447 L586.8504 2534.3447 L591.8504 2531.3447 L596.8504 2534.3447 Z" clip-path="url(#clipPath2)" stroke="none"/>
      <path fill="none" d="M1220.8253 2775.5857 L1220.8253 2686.6982 L1251.0369 2656.4868 L1944.4963 2656.4868 L1958.6385 2642.3447 L1958.6385 1986.6205 L1944.4963 1972.4784 L1910.1021 1972.4784 L1895.96 1958.3362 L1895.96 1852.9514 L1881.8177 1838.8092 L1850.1021 1838.8092 L1835.96 1824.6671 L1835.96 1617.9076 L1667.3928 1449.3405 L1533.8984 1449.3405 L1519.7563 1435.1984 L1519.7563 1385.9634" clip-path="url(#clipPath2)"/>
      <path d="M1519.7563 1377.9634 L1514.7563 1389.9634 L1519.7563 1386.9634 L1524.7563 1389.9634 Z" clip-path="url(#clipPath2)" stroke="none"/>
      <path fill="none" d="M1172.6173 2775.6035 L1172.6173 2723.6636 L1150.4406 2701.4868 L302.9386 2701.4868 L288.7964 2687.3447 L288.7964 2530.3447" clip-path="url(#clipPath2)"/>
      <path d="M288.7964 2522.3447 L283.7964 2534.3447 L288.7964 2531.3447 L293.7964 2534.3447 Z" clip-path="url(#clipPath2)" stroke="none"/>
      <path fill="none" d="M1199.3995 2775.5862 L1199.3995 2600.4458 L1150.4406 2551.4868 L1120.0707 2551.4868 L1105.9286 2537.3447 L1105.9286 2530.3447" clip-path="url(#clipPath2)"/>
      <path d="M1105.9286 2522.3447 L1100.9286 2534.3447 L1105.9286 2531.3447 L1110.9286 2534.3447 Z" clip-path="url(#clipPath2)" stroke="none"/>
      <path fill="none" d="M1218.1471 2775.5796 L1218.1471 2674.3765 L1251.0369 2641.4868 L1941.8177 2641.4868 L1955.96 2627.3447 L1955.96 2201.1199 L1865.1057 2110.2656 L1455.3914 2110.2656 L1441.2491 2096.1233 L1441.2493 1680.46" clip-path="url(#clipPath2)"/>
      <path d="M1441.2493 1672.46 L1436.2493 1684.46 L1441.2493 1681.46 L1446.2493 1684.46 Z" clip-path="url(#clipPath2)" stroke="none"/>
      <path fill="none" d="M1202.0778 2775.5862 L1202.0778 2600.4458 L1251.0369 2551.4868 L1281.4066 2551.4868 L1295.5488 2537.3447 L1295.5488 2530.3447" clip-path="url(#clipPath2)"/>
      <path d="M1295.5488 2522.3447 L1290.5488 2534.3447 L1295.5488 2531.3447 L1300.5488 2534.3447 Z" clip-path="url(#clipPath2)" stroke="none"/>
      <path fill="none" d="M1194.0431 2775.5923 L1194.0431 2625.0894 L1150.4406 2581.4868 L938.6917 2581.4868 L924.5496 2567.3447 L924.5496 2286.834 L923.8643 2286.1487 L923.8643 1236.0081 L940.4305 1219.4418 L940.4305 830.9897" clip-path="url(#clipPath2)"/>
      <path d="M940.4305 822.9897 L935.4305 834.9897 L940.4305 831.9897 L945.4305 834.9897 Z" clip-path="url(#clipPath2)" stroke="none"/>
      <path fill="none" d="M1228.86 2775.6035 L1228.86 2723.6636 L1251.0369 2701.4868 L2140.0852 2701.4868 L2154.2273 2687.3447 L2154.2273 1642.46 L2053.7671 1541.9996 L1821.01 1541.9996 L1806.8678 1527.8574 L1806.8678 1318.8212 L1777.7257 1289.6791 L1761.0002 1289.6791 L1746.858 1275.537 L1746.858 830.9897" clip-path="url(#clipPath2)"/>
      <path d="M1746.858 822.9897 L1741.858 834.9897 L1746.858 831.9897 L1751.858 834.9897 Z" clip-path="url(#clipPath2)" stroke="none"/>
      <path fill="none" d="M1236.8947 2775.5996 L1236.8947 2760.6289 L1251.0369 2746.4868 L2349.8718 2746.4868 L2364.0139 2732.3447 L2364.0139 2492.3447 L2394.0139 2462.3447 L2394.0139 268.2843 L2199.8718 74.1421 L1299.3696 74.1421 L1285.2275 60 L1285.2275 38" clip-path="url(#clipPath2)"/>
      <path d="M1285.2275 30 L1280.2275 42 L1285.2275 39 L1290.2275 42 Z" clip-path="url(#clipPath2)" stroke="none"/>
      <path fill="none" d="M1223.5035 2775.5916 L1223.5035 2699.02 L1251.0369 2671.4868 L2040.9515 2671.4868 L2055.0938 2657.3447 L2055.0938 2530.3447" clip-path="url(#clipPath2)"/>
      <path d="M2055.0938 2522.3447 L2050.0938 2534.3447 L2055.0938 2531.3447 L2060.0938 2534.3447 Z" clip-path="url(#clipPath2)" stroke="none"/>
      <path fill="none" d="M1183.3302 2775.5796 L1183.3302 2674.3765 L1150.4406 2641.4868 L765.6568 2641.4868 L751.5147 2627.3447 L751.5147 2530.3447" clip-path="url(#clipPath2)"/>
      <path d="M751.5147 2522.3447 L746.5147 2534.3447 L751.5147 2531.3447 L756.5147 2534.3447 Z" clip-path="url(#clipPath2)" stroke="none"/>
      <path fill="none" d="M1177.9738 2775.5916 L1177.9738 2699.02 L1150.4406 2671.4868 L461.6537 2671.4868 L447.5115 2657.3447 L447.5115 2530.3447" clip-path="url(#clipPath2)"/>
      <path d="M447.5115 2522.3447 L442.5115 2534.3447 L447.5115 2531.3447 L452.5115 2534.3447 Z" clip-path="url(#clipPath2)" stroke="none"/>
      <path fill="none" d="M1188.6866 2775.5981 L1188.6866 2649.7329 L1150.4406 2611.4868 L886.3303 2611.4868 L872.1881 2597.3447 L872.1881 2530.3447" clip-path="url(#clipPath2)"/>
      <path d="M872.1881 2522.3447 L867.1881 2534.3447 L872.1881 2531.3447 L877.1881 2534.3447 Z" clip-path="url(#clipPath2)" stroke="none"/>
      <path fill="none" d="M1215.4689 2775.6013 L1215.4689 2662.0547 L1251.0369 2626.4868 L1911.8177 2626.4868 L1925.96 2612.3447 L1925.96 1347.9634 L1911.8177 1333.8212 L1880.1021 1333.8212 L1865.96 1319.6791 L1865.96 792.9897 L1415.3966 342.4264 L1105.5048 342.4264 L1091.3627 328.2843 L1091.3627 306.2843" clip-path="url(#clipPath2)"/>
      <path d="M1091.3627 298.2843 L1086.3627 310.2843 L1091.3627 307.2843 L1096.3627 310.2843 Z" clip-path="url(#clipPath2)" stroke="none"/>
      <path fill="none" d="M1191.3649 2775.5952 L1191.3649 2637.4111 L1150.4406 2596.4868 L936.0132 2596.4868 L921.871 2582.3447 L921.871 2273.1421 L926.5428 2268.4702 L926.5428 2025.4055 L953.8643 1998.0841 L953.8643 1821.4354 L1044.5555 1730.7443 L1088.9324 1730.7443 L1103.0745 1716.6021 L1103.0745 1680.46" clip-path="url(#clipPath2)"/>
      <path d="M1103.0745 1672.46 L1098.0745 1684.46 L1103.0745 1681.46 L1108.0745 1684.46 Z" clip-path="url(#clipPath2)" stroke="none"/>
      <path fill="none" d="M1175.2955 2775.5977 L1175.2955 2711.3418 L1150.4406 2686.4868 L401.4183 2686.4868 L387.2762 2672.3447 L387.2762 2435.4187 L365.2845 2413.4272 L365.2845 2324.834" clip-path="url(#clipPath2)"/>
      <path d="M365.2845 2316.834 L360.2845 2328.834 L365.2845 2325.834 L370.2845 2328.834 Z" clip-path="url(#clipPath2)" stroke="none"/>
      <path fill="none" d="M1164.5826 2775.5996 L1164.5826 2760.6289 L1150.4406 2746.4868 L31.5461 2746.4868 L17.404 2732.3447 L17.404 792.9897 L393.8252 416.5685 L517.6044 416.5685 L531.7465 402.4264 L531.7465 306.2843" clip-path="url(#clipPath2)"/>
      <path d="M531.7465 298.2843 L526.7465 310.2843 L531.7465 307.2843 L536.7465 310.2843 Z" clip-path="url(#clipPath2)" stroke="none"/>
      <path fill="none" d="M1234.2164 2775.6023 L1234.2164 2748.3071 L1251.0369 2731.4868 L2347.1931 2731.4868 L2361.3352 2717.3447 L2361.3352 2482.345 L2299.0698 2420.0796 L2064.708 2420.0796 L2050.5659 2405.9375 L2050.5662 1890.9514" clip-path="url(#clipPath2)"/>
      <path d="M2050.5662 1882.9514 L2045.5662 1894.9514 L2050.5662 1891.9514 L2055.5662 1894.9514 Z" clip-path="url(#clipPath2)" stroke="none"/>
      <path fill="none" d="M1226.1818 2775.5977 L1226.1818 2711.3418 L1251.0369 2686.4868 L2137.4067 2686.4868 L2151.5488 2672.3447 L2151.5488 2030.7626 L2137.4067 2016.6205 L2116.8647 2016.6205 L2102.7227 2002.4784 L2102.7227 1842.9514 L2088.5806 1828.8093 L1929.3889 1828.8093 L1915.2468 1814.6671 L1915.2468 1642.46 L1844.7865 1571.9996 L1805.052 1571.9996 L1719.3536 1486.3013 L1719.3536 1385.9634" clip-path="url(#clipPath2)"/>
      <path d="M1719.3536 1377.9634 L1714.3536 1389.9634 L1719.3536 1386.9634 L1724.3536 1389.9634 Z" clip-path="url(#clipPath2)" stroke="none"/>
      <path fill="none" d="M1207.4342 2775.5923 L1207.4342 2625.0894 L1251.0369 2581.4868 L1476.29 2581.4868 L1490.4321 2567.3447 L1490.4321 2403.2026 L1433.2057 2345.9761 L1366.5884 2345.9761 L1352.4463 2331.834 L1352.4463 2324.834" clip-path="url(#clipPath2)"/>
      <path d="M1352.4463 2316.834 L1347.4463 2328.834 L1352.4463 2325.834 L1357.4463 2328.834 Z" clip-path="url(#clipPath2)" stroke="none"/>
      <path fill="none" d="M1169.9391 2775.5903 L1169.9391 2735.9854 L1150.4406 2716.4868 L204.4588 2716.4868 L190.3167 2702.3447 L190.3167 1319.6791 L205.3167 1304.6791 L244.8601 1304.6791 L711.5494 837.9897 L711.5494 830.9897" clip-path="url(#clipPath2)"/>
      <path d="M711.5494 822.9897 L706.5494 834.9897 L711.5494 831.9897 L716.5494 834.9897 Z" clip-path="url(#clipPath2)" stroke="none"/>
      <path fill="none" d="M1210.1124 2775.5952 L1210.1124 2637.4111 L1251.0369 2596.4868 L1906.4607 2596.4868 L1920.6028 2582.3447 L1920.6028 2150.7627 L1895.96 2126.1199 L1895.96 1986.6205 L1866.8177 1957.4784 L1339.1639 1957.4784 L1325.0219 1943.3362 L1325.0219 1697.6461 L1313.9778 1686.6021 L1313.9778 1511.1869 L1283.9778 1481.1869 L1241.1776 1481.1869 L1227.0354 1467.0448 L1227.0354 1385.9634" clip-path="url(#clipPath2)"/>
      <path d="M1227.0354 1377.9634 L1222.0354 1389.9634 L1227.0354 1386.9634 L1232.0354 1389.9634 Z" clip-path="url(#clipPath2)" stroke="none"/>
      <path fill="none" d="M1204.756 2775.5894 L1204.756 2612.7676 L1251.0369 2566.4868 L1426.0007 2566.4868 L1440.1428 2552.3447 L1440.1428 2530.3447" clip-path="url(#clipPath2)"/>
      <path d="M1440.1428 2522.3447 L1435.1428 2534.3447 L1440.1428 2531.3447 L1445.1428 2534.3447 Z" clip-path="url(#clipPath2)" stroke="none"/>
    </g>
  </g>
</svg>
